<?xml version="1.0" standalone="no"?>
<!DOCTYPE svg PUBLIC "-//W3C//DTD SVG 20010904//EN"
 "http://www.w3.org/TR/2001/REC-SVG-20010904/DTD/svg10.dtd">
<svg version="1.0" xmlns="http://www.w3.org/2000/svg"
 width="2136.000000pt" height="2136.000000pt" viewBox="0 0 2136.000000 2136.000000"
 preserveAspectRatio="xMidYMid meet">
<metadata>
Created by potrace 1.14, written by Peter Selinger 2001-2017
</metadata>
<g transform="translate(0.000000,2136.000000) scale(0.100000,-0.100000)"
fill="#000000" stroke="none">
<path d="M14680 21144 c-348 -23 -606 -61 -915 -134 -726 -172 -1517 -513
-2315 -998 -140 -85 -356 -231 -382 -259 -15 -15 -73 -107 -129 -203 -56 -96
-109 -186 -119 -200 -10 -14 -58 -95 -107 -180 -50 -85 -115 -195 -145 -245
-30 -49 -108 -179 -173 -288 -122 -205 -135 -220 -263 -311 -198 -139 -587
-293 -1112 -441 -328 -92 -493 -151 -668 -239 -278 -140 -474 -392 -557 -721
-45 -174 -52 -383 -21 -578 9 -50 14 -92 13 -93 -26 -19 -219 -94 -253 -98
-12 -2 -37 -13 -56 -24 -19 -12 -74 -33 -121 -47 -48 -14 -95 -33 -106 -44
-10 -10 -37 -22 -59 -26 -22 -3 -50 -17 -62 -30 -28 -30 -104 -70 -149 -79
-19 -3 -42 -12 -50 -20 -9 -7 -31 -16 -49 -19 -18 -4 -47 -17 -65 -31 -18 -13
-48 -26 -67 -30 -24 -4 -55 -24 -95 -61 -32 -30 -65 -55 -73 -55 -14 0 -133
-51 -158 -68 -6 -4 -30 -19 -53 -34 -22 -16 -60 -40 -82 -55 -23 -16 -49 -32
-58 -38 -9 -5 -35 -25 -58 -42 -23 -18 -47 -33 -55 -33 -23 0 -112 -51 -148
-85 -19 -19 -55 -41 -80 -51 -25 -9 -50 -22 -55 -29 -6 -7 -42 -29 -80 -50
-39 -20 -77 -42 -85 -49 -8 -7 -41 -27 -72 -45 -32 -18 -66 -43 -77 -57 -10
-13 -23 -24 -29 -24 -5 0 -52 -28 -103 -62 -51 -35 -108 -71 -128 -82 -20 -10
-52 -32 -72 -50 -20 -17 -56 -42 -79 -56 -23 -14 -72 -53 -109 -87 -36 -35
-73 -63 -81 -63 -9 0 -38 -22 -66 -48 -28 -27 -84 -64 -125 -84 -41 -20 -97
-56 -124 -80 -28 -24 -60 -50 -71 -58 -33 -23 -137 -102 -154 -116 -61 -54
-92 -76 -122 -86 -18 -6 -55 -30 -83 -52 -27 -23 -56 -45 -62 -51 -7 -5 -30
-24 -50 -42 -115 -97 -161 -136 -190 -163 -18 -17 -41 -30 -52 -30 -12 0 -39
-28 -77 -80 -31 -44 -63 -80 -70 -80 -18 0 -75 -50 -69 -60 3 -5 -3 -11 -12
-14 -10 -4 -45 -40 -78 -82 -95 -119 -186 -214 -210 -220 -25 -6 -103 -91
-128 -139 -16 -32 -156 -224 -209 -287 -17 -21 -39 -59 -48 -85 -10 -27 -34
-72 -54 -102 -20 -29 -36 -57 -36 -61 0 -11 -62 -112 -76 -125 -6 -5 -19 -26
-29 -45 -10 -19 -22 -42 -26 -50 -20 -35 -41 -87 -46 -115 -3 -16 -13 -39 -23
-50 -10 -11 -29 -42 -43 -70 -13 -27 -34 -68 -45 -90 -83 -159 -162 -337 -162
-361 0 -16 -7 -39 -15 -52 -11 -14 -14 -33 -10 -55 5 -23 1 -39 -12 -57 -31
-41 -46 -78 -40 -94 4 -9 -3 -46 -15 -83 -12 -38 -23 -76 -24 -85 0 -9 -13
-31 -28 -48 -14 -17 -27 -41 -28 -53 0 -12 -2 -38 -4 -57 -1 -19 -14 -80 -28
-134 -14 -54 -26 -107 -26 -117 0 -10 -13 -46 -29 -79 -17 -34 -28 -67 -25
-75 3 -7 -4 -31 -15 -53 -12 -23 -20 -51 -20 -64 0 -13 -6 -41 -15 -63 -8 -22
-15 -52 -16 -67 0 -15 -5 -30 -11 -34 -6 -3 -9 -14 -6 -24 5 -20 -23 -130 -57
-224 -14 -37 -25 -85 -25 -105 1 -20 -4 -56 -12 -81 -7 -25 -13 -49 -14 -55 0
-5 -4 -15 -8 -22 -4 -7 -9 -39 -12 -72 -2 -33 -6 -65 -9 -70 -3 -5 -10 -35
-15 -68 -5 -32 -21 -91 -35 -132 -16 -42 -27 -93 -26 -120 1 -70 -17 -200 -30
-216 -7 -8 -9 -27 -5 -48 4 -21 0 -55 -10 -88 -9 -30 -21 -83 -26 -119 -4 -36
-13 -87 -19 -115 -7 -27 -13 -84 -15 -125 -6 -105 -14 -180 -22 -204 -16 -51
-18 -100 -4 -152 7 -30 7 -53 -2 -90 -7 -27 -12 -76 -12 -109 1 -33 -3 -66 -8
-73 -5 -7 -12 -44 -15 -83 -3 -45 -9 -68 -16 -66 -6 2 -12 16 -14 30 -4 36
-22 34 -22 -2 0 -17 -4 -32 -9 -35 -4 -3 -12 -42 -15 -86 -4 -44 -12 -95 -17
-112 -6 -18 -12 -92 -14 -165 -2 -94 -7 -137 -17 -152 -11 -15 -13 -35 -7 -81
4 -34 6 -130 4 -213 -3 -142 -11 -197 -33 -211 -5 -3 -8 -122 -8 -267 1 -143
-3 -263 -7 -266 -4 -3 -5 -57 -1 -121 3 -65 5 -128 4 -142 -6 -69 0 -205 10
-230 11 -27 9 -32 -27 -68 -21 -22 -50 -55 -64 -73 -15 -19 -42 -52 -61 -74
-20 -22 -43 -56 -52 -75 l-16 -35 -142 -3 c-79 -2 -165 -4 -193 -5 -44 -2 -50
0 -53 20 -5 35 -24 45 -62 32 -20 -8 -67 -10 -127 -6 l-95 6 4 -30 c3 -17 1
-32 -3 -35 -5 -3 -43 -7 -86 -9 -43 -3 -92 -8 -110 -10 -17 -3 -34 -1 -38 5
-16 26 -158 3 -175 -30 -5 -10 -10 -63 -10 -117 0 -142 -6 -138 177 -138 81 0
180 1 218 3 39 2 85 0 103 -3 22 -5 40 -2 57 9 20 13 57 18 163 21 75 2 158 7
185 11 38 5 47 3 47 -9 0 -18 -55 -67 -75 -67 -7 0 -16 -15 -19 -32 -4 -20
-27 -56 -62 -93 -30 -33 -62 -74 -70 -92 -9 -18 -24 -35 -34 -38 -18 -6 -29
-27 -39 -80 -4 -19 -13 -31 -26 -33 -31 -6 -95 -81 -95 -113 0 -4 -14 -30 -30
-56 -17 -26 -30 -60 -30 -75 0 -59 46 -130 113 -173 15 -9 27 -23 27 -30 0
-19 54 -55 82 -55 13 0 33 -9 45 -19 11 -10 29 -21 39 -23 15 -3 18 -10 15
-38 -1 -19 -7 -43 -12 -52 -13 -23 -11 -92 2 -105 8 -8 8 -13 0 -17 -15 -10
-14 -62 1 -86 10 -16 10 -24 0 -41 -9 -15 -10 -24 -2 -33 5 -8 11 -53 11 -102
1 -49 5 -97 10 -106 5 -9 11 -39 12 -66 2 -28 11 -62 21 -76 14 -22 17 -50 17
-148 0 -107 2 -124 19 -138 18 -16 30 -76 33 -176 3 -61 19 -74 88 -74 52 0
59 -2 59 -20 0 -11 5 -20 10 -20 6 0 10 -11 10 -24 0 -24 39 -108 53 -114 4
-2 7 -15 7 -29 0 -14 10 -38 21 -55 17 -23 20 -40 17 -79 -4 -34 -1 -52 8 -60
8 -6 14 -18 14 -25 0 -8 5 -14 10 -14 6 0 10 -11 10 -25 0 -13 9 -39 20 -57
11 -18 20 -45 20 -60 0 -15 5 -30 10 -33 6 -3 10 -31 10 -62 0 -46 3 -56 20
-60 15 -4 20 -14 22 -42 2 -50 2 -54 12 -69 4 -7 8 -29 8 -47 0 -24 9 -43 29
-64 22 -23 29 -40 29 -70 0 -22 5 -43 10 -46 6 -3 10 -14 10 -24 0 -19 13 -48
42 -91 14 -20 16 -40 13 -92 -6 -72 6 -118 30 -118 10 0 15 -10 15 -30 0 -16
5 -30 10 -30 6 0 10 -6 10 -13 0 -7 9 -23 21 -36 17 -18 21 -35 21 -91 0 -49
5 -74 17 -87 24 -28 41 -61 41 -79 0 -8 14 -35 30 -59 17 -24 30 -52 30 -62 1
-29 25 -53 53 -53 14 0 29 -4 32 -10 3 -5 16 -10 29 -10 12 0 32 -11 44 -25
12 -13 36 -31 54 -40 18 -8 40 -18 48 -23 36 -21 58 -30 87 -36 17 -4 34 -14
37 -22 3 -8 13 -14 23 -14 10 0 34 -13 54 -29 22 -18 49 -30 74 -32 22 -2 49
-12 59 -21 11 -10 26 -18 33 -18 7 0 21 -4 31 -9 9 -5 31 -15 47 -22 17 -7 42
-24 57 -38 37 -33 98 -54 115 -39 10 8 17 8 25 0 7 -7 21 -12 33 -12 12 0 25
-4 31 -9 10 -11 51 -21 109 -28 22 -2 47 -7 55 -10 8 -3 51 -8 95 -10 44 -3
84 -9 89 -14 6 -5 20 -9 32 -9 13 0 25 -4 28 -9 4 -5 22 -5 43 0 23 5 42 4 47
-1 6 -6 27 -10 48 -10 20 0 48 -5 61 -11 18 -8 30 -8 47 1 28 15 313 15 342
-1 14 -8 23 -8 31 0 6 6 19 11 29 11 10 0 18 5 18 10 0 14 33 13 48 -2 9 -9
15 -9 24 0 7 7 24 12 39 12 15 0 31 5 34 10 9 14 101 13 124 -2 10 -6 26 -8
37 -3 32 13 77 14 96 2 13 -9 21 -8 30 1 6 6 31 12 54 12 24 0 46 5 49 10 9
14 119 12 133 -2 9 -9 15 -9 24 0 7 7 36 12 65 12 29 0 61 4 71 9 67 34 76 36
152 32 47 -3 129 10 136 20 3 5 14 9 25 9 10 0 28 9 39 20 12 12 25 18 30 15
6 -4 16 -3 23 2 26 17 84 33 119 33 20 0 40 5 43 10 3 6 15 10 26 10 10 0 19
5 19 10 0 14 33 13 48 -2 9 -9 15 -9 24 0 7 7 39 12 74 12 35 0 66 4 69 10 3
5 15 10 26 10 10 0 19 5 19 10 0 6 13 10 29 10 17 0 33 5 36 10 3 6 14 10 23
10 15 0 67 22 153 66 14 7 29 11 32 8 3 -3 23 6 46 20 23 15 55 26 75 26 19 0
38 5 41 10 3 6 15 10 25 10 11 0 35 9 55 20 20 11 45 20 56 20 12 0 23 8 26
20 3 11 13 20 22 20 16 0 61 60 61 82 0 7 9 24 20 38 11 14 20 30 20 35 0 6 9
21 20 35 11 14 20 35 20 47 0 12 5 25 11 28 6 4 8 13 5 21 -3 8 -1 14 4 14 11
0 40 41 44 62 2 7 7 21 11 31 4 10 3 29 -3 42 -9 19 -8 25 5 29 8 4 13 13 9
21 -3 8 -2 15 3 15 5 0 11 8 14 17 3 10 12 29 20 43 45 77 57 115 57 170 0 33
4 62 10 65 5 3 10 21 10 40 0 19 4 37 10 40 6 3 10 44 10 90 0 63 5 93 18 117
16 29 29 97 46 253 8 66 18 105 27 105 5 0 9 8 9 18 0 10 4 22 9 27 12 13 21
79 26 189 2 49 9 94 15 100 5 5 10 20 10 32 0 20 30 107 51 146 5 10 9 28 9
41 0 12 9 30 20 40 13 11 20 29 20 52 0 19 4 35 10 35 5 0 14 18 20 40 6 21
14 41 19 44 4 3 8 22 9 43 2 38 10 65 42 138 25 59 40 108 40 136 0 14 9 35
20 47 11 12 20 28 20 37 0 8 3 15 8 15 12 0 32 52 32 85 0 40 23 88 67 139 18
22 33 48 33 57 0 10 4 21 10 24 6 3 10 24 10 46 0 42 21 62 43 40 6 -6 23 -11
37 -11 14 0 30 -4 36 -9 13 -13 96 28 102 51 2 10 13 18 23 18 11 0 19 3 19 8
0 4 10 12 22 17 38 17 60 72 63 155 1 41 5 83 10 93 4 11 3 29 -4 43 -6 14
-11 34 -11 44 0 21 15 27 25 10 4 -6 50 -9 113 -7 124 4 166 19 209 75 26 34
28 46 31 136 4 94 1 109 -29 168 -5 10 -9 33 -9 51 0 33 -24 67 -48 67 -7 0
-12 7 -12 15 0 23 -30 65 -46 65 -13 0 -19 25 -15 58 1 6 -9 12 -22 12 -27 0
-47 15 -70 52 -13 20 -13 27 -3 31 17 7 69 2 134 -11 28 -6 88 -11 132 -10 44
0 85 -4 92 -9 12 -9 69 -17 93 -14 49 7 187 6 215 -2 52 -15 451 -23 513 -11
19 4 27 2 27 -8 0 -21 -29 -58 -46 -58 -8 0 -17 -7 -20 -15 -4 -8 -10 -13 -15
-10 -9 6 -49 -16 -49 -28 0 -4 -41 -48 -90 -98 -50 -50 -90 -95 -90 -101 0 -5
-14 -21 -30 -35 -16 -13 -30 -30 -30 -37 0 -7 -8 -28 -17 -46 -19 -40 -30
-185 -14 -195 6 -3 11 -13 11 -21 0 -15 89 -104 104 -104 5 0 29 -23 54 -50
25 -28 53 -50 62 -50 10 0 23 -6 29 -14 15 -18 6 -37 -48 -96 -23 -25 -41 -53
-41 -62 0 -10 -9 -33 -20 -53 -11 -20 -20 -49 -20 -65 0 -16 -5 -32 -10 -35
-13 -8 -13 -69 0 -95 6 -11 15 -29 20 -40 6 -11 10 -29 10 -40 0 -25 48 -100
64 -100 6 0 23 -13 38 -29 26 -27 32 -29 124 -30 128 -2 160 -22 177 -106 21
-106 29 -154 33 -205 3 -30 9 -64 14 -75 11 -26 32 -124 46 -223 4 -23 11 -45
15 -48 5 -3 9 -20 9 -38 0 -17 4 -36 10 -42 5 -5 11 -55 13 -110 2 -55 6 -104
9 -109 3 -6 6 -28 7 -50 0 -22 5 -56 11 -75 5 -19 10 -53 10 -75 0 -23 5 -46
12 -53 8 -8 9 -18 1 -35 -12 -26 -5 -76 15 -114 7 -12 12 -55 12 -97 0 -41 5
-78 10 -81 13 -8 13 -85 0 -85 -5 0 -10 -15 -10 -34 0 -19 5 -38 10 -41 6 -3
10 -28 10 -54 0 -26 5 -52 11 -58 8 -8 8 -13 0 -17 -14 -9 -15 -123 -1 -131 6
-3 10 -21 10 -40 0 -19 4 -36 9 -39 5 -3 7 -23 4 -44 -3 -21 2 -56 11 -82 9
-25 16 -72 16 -105 0 -34 5 -66 10 -71 6 -6 11 -36 11 -67 1 -53 17 -118 32
-133 4 -4 7 -16 7 -26 0 -10 5 -18 10 -18 6 0 10 -9 10 -20 0 -10 16 -32 35
-47 29 -23 35 -35 35 -65 0 -43 49 -108 82 -108 11 0 32 -8 46 -19 15 -10 37
-21 49 -25 11 -4 27 -13 33 -21 7 -8 23 -15 36 -15 13 0 24 -3 24 -8 0 -4 17
-15 39 -24 21 -9 45 -23 52 -30 13 -12 31 -22 99 -52 14 -6 34 -19 44 -28 11
-10 30 -18 42 -18 13 0 26 -5 29 -10 3 -6 19 -10 35 -10 16 0 46 -9 66 -20 20
-12 73 -26 117 -32 47 -6 93 -19 109 -30 14 -10 35 -18 45 -18 10 0 24 -5 31
-12 9 -9 17 -9 36 2 15 8 35 10 53 5 42 -11 126 -13 146 -3 10 5 17 5 17 -2 0
-5 15 -10 33 -10 18 0 38 -5 44 -11 6 -6 45 -11 87 -11 42 0 78 -3 81 -8 3 -5
55 -9 116 -8 70 0 114 -3 122 -11 6 -6 39 -11 74 -11 35 0 72 -6 83 -12 16
-10 24 -10 41 0 16 10 32 10 79 1 47 -9 63 -9 75 1 11 9 18 10 29 1 18 -15
214 -12 241 4 30 18 273 2 335 -22 26 -10 70 -11 76 -2 7 12 111 11 119 -1 8
-13 48 -13 61 0 5 5 61 10 123 11 67 0 122 6 133 12 14 9 23 9 38 -1 24 -15
57 -16 65 -2 4 6 35 10 70 8 57 -2 66 1 83 22 17 21 22 23 36 11 13 -11 22
-11 42 -2 14 6 49 11 78 11 39 0 57 5 70 19 26 29 111 39 186 23 34 -8 52 -7
72 3 18 9 30 10 34 3 4 -6 22 -7 43 -3 20 3 60 9 90 12 30 3 69 14 88 24 20
11 53 19 83 19 27 0 52 5 55 10 3 6 17 10 30 10 13 0 25 5 27 11 3 9 9 9 25 0
24 -12 66 -15 77 -4 17 17 87 33 149 33 38 0 67 4 67 10 0 6 17 10 38 10 21 0
43 5 50 12 6 6 37 10 71 9 33 -1 62 3 66 9 3 5 14 10 24 10 10 0 30 13 44 30
15 16 33 30 40 30 17 0 147 123 147 139 0 6 4 19 9 29 5 9 13 28 19 42 5 14
19 45 30 70 12 26 23 74 25 113 3 37 11 76 18 85 28 35 39 63 39 101 0 22 4
43 10 46 6 3 10 26 10 50 0 24 5 47 10 50 5 3 10 17 10 31 0 13 5 24 10 24 6
0 10 31 10 74 0 41 4 78 10 81 6 3 10 22 10 41 0 20 5 45 11 56 6 11 13 55 14
97 4 97 10 133 25 162 9 16 12 68 11 172 -2 110 1 152 11 164 8 10 14 49 15
107 2 108 12 187 24 201 5 5 9 53 9 106 0 55 4 101 10 104 5 3 10 28 10 55 0
27 5 52 10 55 6 3 10 15 10 26 0 10 5 19 10 19 6 0 10 23 10 51 0 28 5 59 11
70 7 15 7 24 -1 34 -7 9 -8 15 0 20 5 3 10 21 10 40 0 43 18 47 172 46 67 0
120 3 123 9 3 6 15 10 27 10 11 0 32 9 47 19 14 10 46 24 71 31 25 7 50 16 56
21 6 5 14 6 17 2 4 -3 14 0 23 8 9 7 25 18 36 24 27 13 63 82 65 124 1 18 12
53 23 76 14 28 22 70 25 121 l4 79 37 -3 c27 -3 46 3 78 25 22 16 63 34 90 41
77 20 194 137 209 209 29 141 29 142 2 177 -14 18 -22 36 -19 39 4 3 -3 21
-14 39 -11 18 -17 39 -15 46 3 8 -4 16 -16 19 -12 3 -21 10 -21 16 0 6 -7 18
-16 28 -15 16 -15 20 0 50 9 18 16 39 16 49 0 9 5 21 12 28 9 9 9 15 0 24 -7
7 -12 35 -12 63 0 28 -4 55 -9 60 -4 6 -11 27 -14 49 -5 32 -3 39 13 43 11 3
20 12 20 19 0 12 5 12 30 -1 17 -9 35 -13 40 -10 5 3 34 8 64 11 45 4 56 2 64
-13 9 -15 12 -15 27 -3 18 15 94 15 109 -1 6 -5 24 -9 41 -9 17 0 36 -5 43
-12 8 -8 15 -8 26 1 15 13 29 12 189 -5 37 -4 57 -2 57 5 0 6 6 8 14 5 8 -3
17 -1 20 4 3 6 23 6 48 2 24 -4 81 -6 128 -5 51 2 90 -1 98 -8 9 -7 16 -7 20
-1 10 13 124 18 131 5 4 -6 55 -11 121 -12 63 -1 120 -5 126 -10 7 -5 24 -3
42 7 18 9 37 12 44 7 7 -4 51 -9 98 -10 47 -1 111 -5 144 -9 44 -4 61 -3 67 7
10 16 91 18 111 2 17 -12 143 -17 160 -6 12 8 50 12 128 14 30 0 187 -7 215
-11 6 0 22 2 38 6 21 5 27 3 27 -10 0 -28 29 -30 56 -5 19 17 27 20 36 11 15
-15 110 -16 126 0 8 8 15 8 28 -3 14 -11 18 -11 28 1 11 15 64 15 79 0 5 -4
27 -3 49 3 27 7 46 7 57 0 13 -8 48 -10 85 -4 4 0 6 8 2 16 -6 16 5 20 18 7 8
-7 21 -8 203 -12 57 -1 105 -6 109 -11 7 -12 154 -12 154 1 0 5 15 10 33 11
91 1 136 5 143 11 12 13 41 9 47 -5 3 -8 18 -13 36 -12 17 1 31 -2 31 -7 0
-12 81 -4 109 11 21 12 25 11 33 -4 25 -43 127 -51 168 -13 14 13 25 17 33 10
14 -11 67 -13 67 -2 0 8 57 7 80 -2 26 -10 123 -26 169 -28 25 0 48 -3 52 -5
3 -3 21 3 39 11 25 13 37 14 56 5 14 -6 36 -11 49 -11 13 0 27 -4 30 -10 3 -5
37 -10 76 -10 38 0 78 -5 89 -12 15 -9 24 -9 44 1 17 9 43 12 83 7 32 -3 90
-10 128 -14 39 -4 75 -11 82 -15 6 -4 15 -2 18 4 5 6 20 8 40 5 62 -12 65 -7
65 125 l0 119 -37 1 c-21 1 -42 1 -47 0 -4 -1 -27 7 -50 18 -22 11 -63 22 -91
24 -57 5 -75 9 -92 20 -7 4 -21 2 -31 -4 -15 -10 -43 -10 -118 -1 -55 6 -139
13 -188 16 -49 3 -94 11 -102 17 -7 6 -51 11 -101 10 -48 0 -93 5 -100 10 -7
6 -18 7 -24 3 -12 -7 -36 -8 -102 -5 l-29 1 6 107 c3 60 8 192 10 294 3 172
11 230 37 282 6 10 6 24 0 35 -9 18 -7 110 4 160 9 42 14 380 6 410 -4 15 -3
43 2 62 5 19 11 100 13 180 6 208 6 238 1 305 -2 33 2 93 9 134 10 57 11 85 3
115 -11 40 -6 337 6 356 17 27 32 115 25 142 -13 42 -12 124 0 283 6 77 11
145 11 150 -1 6 -2 91 -4 190 -2 126 -6 187 -16 204 -13 24 -8 86 10 107 9 11
-3 70 -27 122 -12 26 -14 64 -10 198 3 90 8 169 11 175 4 5 6 54 6 107 -1 54
3 144 9 201 5 57 6 108 2 115 -4 6 -8 40 -8 76 -1 36 -9 112 -17 170 -9 58
-15 130 -14 161 1 45 -5 68 -27 110 -20 38 -30 73 -32 118 -3 35 -7 68 -10 73
-3 5 -7 58 -9 118 -2 64 -8 118 -16 131 -7 13 -12 34 -10 47 1 12 -6 37 -17
55 -10 17 -17 40 -14 50 2 10 -4 33 -12 52 -13 26 -14 43 -7 74 12 55 2 127
-20 147 -12 11 -19 31 -19 53 0 20 -11 70 -24 111 -13 41 -27 100 -31 130 -4
30 -14 66 -22 80 -9 13 -16 39 -15 58 1 19 -4 44 -10 56 -7 11 -13 41 -13 65
-1 28 -8 49 -19 56 -9 7 -16 20 -16 30 0 18 -28 73 -46 90 -5 5 -21 37 -34 70
-13 33 -34 79 -46 102 -16 30 -22 52 -18 72 6 27 1 42 -33 106 -6 11 -15 31
-21 45 -15 38 -31 73 -41 90 -5 8 -17 42 -26 75 -10 33 -31 75 -48 94 -52 60
-97 139 -97 170 0 28 -15 44 -79 88 -2 1 -8 26 -12 55 -7 45 -16 59 -59 100
-27 27 -53 61 -56 76 -4 15 -12 32 -19 37 -7 6 -20 26 -29 45 -9 19 -36 62
-60 95 -24 33 -47 74 -50 90 -4 20 -32 55 -80 101 -50 49 -79 85 -91 118 -11
29 -29 53 -47 64 -30 17 -63 76 -74 130 -4 21 -21 44 -49 67 -23 19 -60 60
-80 92 -21 32 -49 76 -64 98 -14 22 -53 67 -86 100 -111 111 -143 150 -150
178 -7 28 -48 77 -63 77 -4 0 -25 21 -46 46 l-39 46 23 52 c44 102 79 213 91
295 16 111 6 282 -22 390 -17 69 -20 95 -12 140 16 102 -12 204 -84 309 -30
44 -30 44 -16 100 22 93 52 224 58 262 3 19 14 78 25 130 45 222 88 574 110
885 5 83 21 218 35 300 34 204 40 282 39 475 -3 326 -92 660 -241 898 -8 13
-34 81 -58 152 -24 70 -63 172 -86 226 -22 55 -61 157 -85 227 -87 252 -181
401 -385 612 -58 61 -142 151 -186 200 -117 131 -293 288 -458 409 -44 33
-109 87 -145 121 -170 163 -386 314 -638 446 -104 55 -135 69 -267 120 -74 29
-215 77 -260 88 -231 57 -353 79 -562 101 -103 11 -447 20 -533 14z m580 -59
c169 -18 402 -61 515 -96 215 -65 388 -135 492 -197 84 -50 105 -82 56 -82
-35 1 -69 9 -213 53 -260 79 -411 113 -655 148 -136 19 -207 22 -465 23 -168
1 -360 -2 -426 -6 -119 -8 -123 -7 -168 18 -25 14 -46 29 -46 34 0 4 -16 17
-35 29 -60 35 -58 36 125 62 36 5 103 12 150 15 47 4 87 8 89 10 10 9 473 0
581 -11z m-1114 -82 c3 -16 12 -50 19 -78 8 -27 11 -53 7 -56 -4 -3 -50 -14
-102 -24 -52 -9 -155 -31 -228 -47 -74 -16 -135 -28 -137 -26 -2 2 -13 36 -24
76 -18 67 -19 73 -3 81 9 5 87 25 172 45 292 68 287 68 296 29z m1444 -363
c438 -52 855 -180 1220 -372 123 -64 180 -102 180 -120 0 -16 -46 -4 -150 40
-258 108 -548 183 -855 222 -49 6 -103 14 -120 17 -16 4 -224 7 -460 7 -395 1
-433 2 -458 19 -15 9 -27 21 -27 25 0 5 -16 16 -35 25 -19 9 -35 21 -35 27 0
5 -18 19 -40 30 -23 12 -43 27 -46 35 -3 8 -16 18 -27 22 -29 9 28 19 173 29
58 3 107 9 110 11 9 8 476 -6 570 -17z m-1220 -120 c18 -28 54 -78 81 -111 27
-34 49 -65 49 -69 0 -5 -19 -11 -42 -15 -24 -4 -101 -21 -173 -37 -238 -55
-209 -55 -266 3 -27 28 -49 52 -49 55 0 2 -8 12 -17 22 -10 10 -31 34 -46 53
l-28 34 43 14 c96 30 365 100 389 100 22 1 33 -9 59 -49z m1700 -715 c474 -52
899 -201 1255 -437 256 -171 473 -352 620 -518 56 -63 102 -137 91 -147 -10
-10 -74 19 -261 121 -234 128 -367 195 -499 250 -224 95 -505 189 -676 226
-52 11 -106 25 -120 30 -14 5 -46 12 -72 15 -26 3 -63 16 -84 30 -20 14 -41
25 -45 25 -5 0 -9 6 -9 13 0 7 -16 21 -35 30 -19 9 -35 21 -35 27 0 5 -18 19
-39 30 -22 11 -44 26 -48 34 -4 7 -23 21 -40 30 -18 9 -33 21 -33 26 0 5 -13
16 -30 25 -16 8 -40 25 -54 38 -13 12 -43 36 -65 52 -23 17 -56 42 -73 57 -17
15 -44 32 -60 39 -16 7 -25 15 -20 18 15 9 182 2 332 -14z m-935 -81 c74 -62
245 -193 391 -300 16 -12 27 -24 24 -27 -3 -2 -72 -8 -155 -11 -82 -4 -193
-11 -245 -16 -52 -5 -107 -10 -121 -10 -18 0 -64 30 -150 99 -68 54 -139 112
-158 130 -19 17 -37 31 -40 31 -3 0 -28 21 -55 45 -32 30 -44 46 -35 49 54 19
390 84 439 85 8 0 56 -33 105 -75z m935 -688 c14 -3 55 -7 92 -10 103 -9 246
-30 350 -52 37 -7 80 -16 95 -19 16 -3 37 -7 48 -10 11 -2 56 -13 100 -24 108
-25 192 -55 390 -139 90 -38 269 -136 318 -174 21 -16 57 -41 80 -55 l42 -24
-32 4 c-18 2 -33 2 -33 1 0 -9 94 -52 104 -48 8 3 17 1 21 -5 3 -7 0 -8 -10
-5 -28 11 -6 -20 33 -45 20 -13 32 -26 27 -28 -6 -2 -66 15 -135 37 -135 44
-346 94 -450 106 -36 4 -76 9 -90 11 -14 2 -142 7 -285 10 -275 6 -438 -3
-700 -37 -83 -11 -159 -18 -170 -15 -11 2 -47 11 -80 20 -33 9 -80 21 -105 26
-25 6 -52 13 -60 17 -8 3 -19 7 -25 7 -26 4 -72 17 -85 24 -9 5 -36 12 -60 16
-25 4 -51 12 -58 18 -7 5 -15 7 -19 4 -3 -3 -18 0 -34 8 -16 9 -32 14 -36 14
-4 -1 -15 0 -23 4 -22 8 -71 19 -103 23 -16 2 -38 9 -50 15 -12 7 -28 13 -37
14 -8 0 -35 7 -60 15 -25 7 -48 13 -51 12 -3 0 -22 5 -43 12 l-37 13 128 31
c296 73 627 109 1031 112 41 0 34 15 -10 24 -54 10 -62 12 -78 18 -17 7 -70
21 -85 22 -5 1 -20 7 -32 14 -12 7 -26 11 -30 10 -12 -2 -66 12 -86 23 -10 5
-21 8 -25 5 -5 -3 -14 0 -22 5 -14 10 318 5 380 -5z m-8172 -3108 c27 -71 131
-277 192 -383 69 -119 264 -423 279 -435 4 -3 15 -18 25 -35 60 -96 332 -436
483 -603 86 -95 276 -286 368 -372 71 -66 265 -226 315 -260 19 -13 37 -27 40
-31 3 -3 30 -21 60 -39 30 -18 64 -41 75 -50 56 -49 264 -148 395 -189 77 -25
276 -69 340 -77 25 -2 52 -7 60 -9 8 -2 35 -7 60 -10 25 -3 52 -8 60 -10 8 -2
49 -7 90 -10 41 -4 77 -8 80 -10 3 -2 46 -6 95 -9 50 -4 106 -9 125 -11 90
-10 249 -22 385 -30 50 -3 124 -7 165 -10 308 -19 944 -38 1665 -50 685 -12
729 -15 805 -57 93 -52 216 -71 350 -54 30 4 111 26 178 49 l124 41 126 -18
c164 -24 158 -23 222 -31 30 -4 64 -9 75 -10 11 -2 47 -6 80 -10 33 -3 71 -8
85 -10 14 -2 57 -7 95 -10 39 -4 80 -8 92 -10 119 -19 818 -28 1008 -13 438
34 839 143 1110 301 38 22 74 44 80 49 5 4 42 31 80 60 39 29 75 57 81 63 6 5
35 30 65 55 29 25 99 91 155 148 55 56 105 102 110 102 11 -1 68 -75 89 -116
8 -16 39 -54 70 -84 30 -30 55 -62 55 -72 0 -9 8 -23 18 -30 11 -7 31 -33 46
-57 15 -24 36 -45 46 -48 9 -3 23 -22 30 -44 8 -22 27 -52 44 -68 42 -37 96
-107 96 -123 0 -7 18 -35 40 -63 22 -27 40 -55 40 -61 0 -14 45 -56 53 -48 3
3 17 -13 32 -35 14 -23 41 -58 60 -78 19 -21 35 -42 35 -49 0 -6 7 -17 16 -25
9 -7 23 -30 31 -51 8 -21 23 -44 32 -51 24 -18 41 -53 41 -86 0 -24 27 -73 51
-91 3 -3 13 -18 22 -35 8 -16 30 -46 49 -67 45 -49 58 -71 108 -182 17 -38 48
-95 70 -128 22 -32 40 -62 40 -66 0 -5 8 -16 18 -26 21 -18 60 -95 86 -168 10
-25 23 -52 31 -58 8 -7 18 -28 21 -49 4 -20 15 -49 24 -66 9 -16 19 -51 22
-76 3 -29 15 -60 32 -81 14 -19 26 -44 26 -54 0 -11 4 -24 9 -29 17 -19 51
-132 51 -171 0 -21 9 -54 20 -72 11 -18 20 -46 20 -63 0 -16 9 -49 20 -71 11
-23 20 -49 20 -57 0 -9 7 -36 16 -61 24 -67 44 -148 44 -175 0 -13 9 -45 20
-70 15 -36 19 -59 14 -94 -5 -37 -2 -51 10 -64 13 -13 16 -35 15 -114 -1 -89
8 -154 30 -208 19 -47 31 -94 31 -126 1 -77 28 -208 50 -243 17 -29 21 -45 15
-74 -10 -52 -9 -123 1 -131 23 -17 32 -72 22 -138 -14 -86 -12 -154 3 -164 9
-5 9 -14 0 -37 -9 -22 -10 -40 -2 -68 9 -37 14 -110 10 -164 -2 -29 -1 -39 2
-105 1 -27 -4 -94 -11 -147 -11 -79 -11 -100 0 -112 10 -13 10 -25 0 -62 -10
-36 -10 -52 0 -84 7 -22 10 -53 6 -72 -14 -70 -18 -139 -8 -151 8 -10 22 -87
21 -124 0 -21 1 -62 1 -80 1 -10 -1 -35 -4 -55 -2 -21 0 -40 5 -44 13 -8 11
-68 -3 -82 -9 -9 -9 -18 0 -37 16 -35 17 -211 2 -230 -9 -11 -9 -22 -1 -46 16
-47 14 -86 -8 -128 -25 -47 -35 -74 -32 -86 2 -5 5 -19 8 -30 2 -11 6 -146 7
-300 1 -207 -1 -287 -10 -306 -8 -15 -13 -64 -13 -115 0 -49 1 -113 1 -141 0
-29 0 -71 0 -93 -1 -108 -2 -284 -1 -357 0 -44 -6 -99 -14 -120 -8 -24 -10
-50 -6 -67 13 -47 7 -277 -8 -316 -5 -15 -16 -239 -14 -299 1 -18 -5 -75 -14
-125 -8 -50 -12 -102 -8 -114 10 -40 -20 -51 -139 -51 -78 0 -109 4 -118 14
-9 10 -29 12 -83 8 -124 -9 -131 -9 -152 -2 -11 4 -33 0 -49 -8 -24 -13 -41
-13 -103 -4 -41 6 -78 9 -81 7 -4 -2 -32 0 -62 4 -40 6 -63 4 -85 -6 -24 -11
-43 -12 -83 -4 -30 5 -62 6 -75 1 -12 -5 -36 -7 -52 -5 -17 2 -48 3 -70 3 -22
1 -60 2 -85 3 -37 2 -290 1 -455 -1 -104 -2 -265 -3 -415 -3 -144 0 -200 0
-285 3 -224 7 -276 11 -307 24 -10 4 -31 3 -46 -3 -16 -5 -35 -6 -42 -2 -6 4
-24 2 -39 -6 -21 -10 -39 -10 -91 -1 -40 8 -84 10 -115 5 -27 -4 -62 -5 -76
-2 -23 4 -289 15 -364 15 -16 0 -47 4 -67 10 -27 7 -57 6 -100 -1 -63 -12 -75
-10 -208 28 -14 4 -79 6 -145 5 -66 -2 -138 -1 -160 2 -37 5 -41 9 -53 48 -26
82 -46 117 -84 142 -44 29 -93 33 -103 8 -6 -16 -8 -15 -25 7 -11 14 -20 31
-20 39 0 8 -22 35 -48 60 -27 25 -51 54 -55 63 -3 9 -35 38 -71 65 -36 26 -65
53 -66 59 0 6 -29 25 -64 43 -36 18 -70 39 -76 47 -7 8 -23 14 -36 14 -15 0
-35 15 -59 44 -43 53 -101 90 -128 82 -12 -3 -32 4 -48 15 -15 10 -34 19 -43
19 -8 0 -45 13 -81 30 -36 16 -69 29 -73 28 -11 -2 -64 13 -92 27 -54 26 -127
48 -165 49 -23 1 -56 11 -77 24 -24 15 -55 24 -92 25 -30 1 -58 6 -62 10 -4 4
-16 7 -26 7 -10 0 -18 2 -18 4 0 15 164 174 175 170 8 -4 20 9 31 33 10 21 61
81 114 133 73 72 105 112 130 164 19 37 48 82 65 100 56 60 125 137 125 140 0
2 13 18 30 36 21 22 30 42 30 65 0 21 9 42 27 61 32 33 53 70 53 91 0 8 18 35
40 60 37 42 40 50 40 105 0 64 -9 88 -48 131 -22 23 -33 27 -84 27 -52 0 -61
-3 -90 -33 -18 -18 -40 -46 -48 -63 -8 -16 -27 -44 -42 -62 -15 -18 -31 -45
-34 -60 -4 -15 -12 -34 -18 -42 -7 -8 -18 -28 -26 -45 -8 -16 -18 -32 -21 -35
-17 -15 -109 -141 -109 -150 0 -5 -4 -10 -9 -10 -5 0 -22 -27 -38 -59 -15 -33
-38 -64 -50 -70 -12 -6 -37 -33 -55 -60 -18 -28 -45 -55 -60 -62 -15 -6 -46
-36 -70 -67 -24 -31 -54 -67 -67 -81 -13 -15 -35 -42 -49 -61 -36 -48 -109
-120 -122 -120 -13 0 -59 -51 -60 -66 0 -12 -52 -64 -64 -64 -13 0 -99 -81
-113 -106 -7 -13 -21 -25 -31 -28 -10 -4 -32 -24 -48 -46 -16 -22 -38 -43 -50
-46 -12 -3 -35 -25 -52 -49 -21 -30 -48 -52 -84 -69 -29 -14 -60 -34 -68 -46
-8 -11 -19 -20 -25 -20 -13 -1 -75 -57 -75 -68 0 -12 -35 -52 -46 -52 -5 0
-26 -14 -46 -30 -20 -17 -52 -37 -71 -45 -19 -8 -59 -39 -90 -69 -47 -46 -63
-55 -105 -61 -44 -6 -52 -12 -91 -61 -34 -44 -48 -54 -72 -54 -20 0 -38 -9
-52 -26 -15 -17 -35 -26 -60 -29 -21 -2 -46 -10 -56 -19 -9 -8 -65 -40 -125
-71 -91 -46 -116 -55 -161 -55 -36 0 -60 -6 -76 -19 -56 -44 -95 -52 -218 -45
-91 5 -121 11 -140 25 -13 11 -33 19 -43 19 -11 0 -33 14 -48 30 -15 17 -35
30 -44 30 -30 0 -65 23 -70 47 -4 13 -22 41 -41 62 -19 21 -35 45 -35 54 0 9
-5 19 -11 22 -5 4 -22 32 -36 63 -14 32 -31 64 -38 72 -7 8 -16 33 -20 55 -3
22 -11 60 -16 85 -6 25 -12 59 -15 75 -8 51 -5 285 5 389 7 68 6 106 -1 119
-7 14 -7 37 1 76 15 78 24 173 26 261 0 41 6 85 13 97 7 12 12 52 12 88 0 59
3 69 24 86 27 21 39 83 22 111 -7 12 -7 27 1 50 17 48 20 165 5 180 -6 6 -12
18 -12 26 0 22 -49 60 -87 67 -26 5 -47 0 -81 -17 -44 -22 -48 -27 -63 -83 -8
-33 -18 -67 -22 -75 -4 -8 -13 -46 -21 -83 -8 -37 -20 -75 -28 -84 -9 -11 -13
-48 -14 -112 -1 -79 -5 -104 -23 -140 -18 -35 -21 -52 -16 -92 4 -27 3 -55 -2
-62 -14 -18 -20 -130 -12 -223 1 -17 -6 -58 -17 -91 -14 -46 -25 -63 -44 -70
-95 -37 -118 -40 -333 -49 -54 -2 -108 -9 -120 -16 -12 -7 -35 -13 -52 -14
-16 -1 -32 -2 -35 -4 -3 -1 -29 -4 -58 -5 -38 -3 -66 -11 -94 -30 -22 -15 -56
-29 -76 -32 -21 -3 -63 -14 -95 -25 -32 -11 -77 -21 -102 -22 -27 -2 -59 -12
-84 -29 -22 -15 -52 -27 -65 -27 -14 0 -28 -4 -31 -10 -3 -5 -15 -10 -26 -10
-11 0 -36 -11 -57 -23 -20 -13 -50 -24 -67 -25 -34 -1 -141 -45 -240 -99 -35
-20 -114 -53 -125 -53 -15 0 -51 -22 -85 -51 -16 -15 -48 -32 -70 -39 -55 -17
-89 -36 -123 -68 -78 -73 -112 -94 -145 -89 -18 2 -40 1 -49 -4 -10 -6 -19 -5
-23 1 -3 5 -33 10 -65 10 -32 0 -62 5 -65 11 -8 13 -165 10 -182 -4 -7 -5 -18
-5 -25 -1 -7 5 -44 10 -83 11 -160 8 -269 21 -307 38 -10 4 -26 4 -35 0 -39
-17 -261 -19 -280 -3 -24 20 -134 37 -185 29 -27 -5 -51 -4 -54 0 -6 10 -52 2
-69 -11 -15 -12 -175 -10 -225 2 -59 15 -133 78 -134 116 -1 31 -83 155 -145
221 -31 33 -41 51 -41 77 0 18 -4 36 -10 39 -6 3 -10 15 -10 25 0 19 -53 70
-74 70 -7 0 -33 24 -58 53 -33 38 -58 57 -89 67 -24 7 -51 19 -59 25 -22 18
-138 70 -190 85 -25 8 -57 22 -72 32 -14 10 -33 18 -41 18 -9 0 -28 5 -44 12
-15 6 -37 13 -48 14 -11 1 -39 9 -63 17 -24 8 -52 13 -62 10 -24 -6 -27 12 -4
21 8 3 13 10 9 15 -3 5 -1 12 5 16 5 3 10 15 10 25 0 10 20 39 45 65 29 28 46
56 48 75 2 17 17 41 35 58 18 17 32 37 32 46 0 9 5 16 10 16 6 0 10 6 10 13 0
6 18 32 40 57 22 24 40 47 40 50 0 3 13 11 30 18 19 9 36 28 48 55 11 23 29
51 41 61 11 11 21 24 21 30 0 7 22 32 48 58 65 61 83 141 44 194 -34 45 -82
53 -199 33 -64 -11 -103 -40 -103 -77 0 -25 -50 -90 -86 -113 -20 -12 -43 -41
-59 -72 -16 -32 -44 -67 -74 -90 -26 -21 -54 -50 -61 -65 -7 -15 -16 -34 -21
-42 -5 -8 -15 -26 -22 -40 -6 -13 -28 -39 -47 -56 -21 -19 -40 -49 -48 -77 -8
-25 -28 -59 -48 -78 -35 -34 -100 -147 -90 -157 3 -3 -4 -10 -17 -16 -12 -7
-27 -23 -34 -37 -7 -13 -28 -37 -47 -53 -23 -18 -36 -37 -36 -52 0 -12 -4 -26
-10 -29 -6 -3 -10 -14 -10 -24 0 -9 -10 -27 -22 -38 -13 -12 -36 -37 -53 -56
-16 -19 -47 -52 -67 -75 -20 -22 -48 -58 -62 -79 -15 -22 -46 -54 -71 -71 -28
-19 -45 -39 -45 -51 0 -11 -9 -25 -19 -31 -11 -5 -26 -16 -33 -22 -28 -26 -97
-78 -104 -78 -15 0 -115 -84 -131 -110 -9 -16 -34 -39 -56 -51 -22 -13 -53
-36 -68 -51 -15 -15 -35 -29 -45 -31 -56 -11 -75 -22 -94 -54 -15 -26 -25 -33
-39 -28 -13 4 -39 -8 -78 -34 -54 -37 -61 -39 -98 -31 -21 5 -77 10 -123 11
-84 2 -107 8 -194 47 -114 52 -135 63 -176 87 -23 14 -47 25 -52 25 -11 0 -84
49 -185 125 -33 24 -76 53 -95 64 -36 20 -150 133 -150 149 0 5 -31 42 -70 83
-38 40 -70 77 -70 81 0 18 -73 157 -91 174 -23 21 -49 70 -49 94 0 21 -23 70
-32 70 -5 0 -8 7 -8 15 0 8 -4 23 -9 33 -5 9 -14 31 -21 47 -7 17 -16 38 -21
47 -5 10 -9 23 -9 30 0 6 -8 21 -18 32 -22 24 -54 108 -59 150 -2 16 -7 34
-12 40 -5 6 -11 36 -14 66 -5 63 -17 111 -40 160 -9 19 -18 68 -21 109 -3 41
-12 83 -19 95 -18 27 -37 115 -37 172 0 119 -124 232 -182 167 -38 -42 -70
-115 -65 -147 3 -17 0 -51 -5 -75 -8 -32 -8 -49 0 -62 7 -10 12 -41 12 -69 0
-28 5 -59 10 -70 5 -11 14 -29 20 -40 5 -11 10 -44 10 -75 0 -36 7 -66 20 -90
14 -26 20 -51 18 -88 -2 -42 5 -67 30 -119 18 -37 32 -76 32 -87 0 -11 5 -23
10 -26 26 -16 7 -34 -47 -45 -32 -6 -78 -15 -103 -20 -25 -6 -71 -9 -102 -8
-47 1 -62 -3 -90 -24 -18 -14 -49 -33 -70 -42 -21 -10 -41 -29 -48 -46 -17
-41 -28 -47 -88 -53 -29 -3 -76 -16 -105 -30 -93 -45 -178 -77 -187 -72 -11 7
-46 -12 -85 -46 -16 -14 -52 -32 -80 -39 -27 -7 -60 -19 -73 -27 -32 -20 -184
-83 -199 -83 -15 0 -18 51 -4 66 5 5 5 33 -2 67 -8 44 -8 74 1 116 7 31 12 77
12 101 0 24 5 70 12 102 9 45 9 63 1 78 -9 14 -8 36 8 100 10 45 19 105 19
133 0 29 9 84 19 122 12 47 19 109 20 187 1 65 6 129 11 143 5 13 9 40 8 59
-1 19 4 42 11 50 11 13 22 133 19 196 -4 68 1 202 10 255 11 68 11 69 18 189
2 49 9 94 14 101 11 14 23 174 31 418 1 54 6 100 11 103 4 3 8 18 8 33 0 15 4
31 9 37 9 9 20 99 26 217 2 43 9 65 24 81 19 20 22 38 25 122 2 54 9 119 16
144 7 25 15 78 17 119 4 58 10 83 31 113 19 30 26 54 28 99 1 32 7 74 13 92 5
17 9 61 9 97 0 40 8 86 20 120 11 30 25 88 31 129 7 41 20 101 31 135 10 34
26 103 36 155 13 68 24 102 42 123 20 23 25 41 26 91 2 44 10 79 29 120 15 32
27 73 27 92 0 18 10 50 21 70 17 28 22 52 21 103 -1 54 4 77 29 129 16 35 34
63 40 63 5 0 9 11 9 24 0 31 19 87 37 108 8 9 17 45 20 80 3 35 9 65 12 68 15
13 31 52 31 78 0 50 41 156 71 184 20 18 29 37 29 57 0 16 5 33 10 36 5 3 10
18 10 32 0 14 11 38 24 53 13 16 27 49 30 74 5 30 17 57 37 78 16 18 29 38 29
44 0 6 9 19 19 28 10 10 22 34 26 54 4 20 28 73 54 117 26 44 55 101 64 126
10 25 31 58 47 73 22 19 30 35 30 60 0 20 8 40 20 51 11 10 20 26 20 35 0 17
11 35 83 137 20 29 37 55 37 58 0 10 44 70 58 78 6 4 12 13 12 20 0 7 23 38
50 71 28 32 57 71 66 87 8 16 24 34 36 40 38 21 109 92 123 124 16 41 223 250
255 260 14 4 40 23 57 41 18 19 40 34 49 34 8 0 34 18 56 40 22 22 48 42 58
45 9 3 23 17 31 31 7 14 32 39 54 54 22 15 53 42 69 59 20 20 39 31 58 31 28
0 30 2 128 113 24 26 49 47 57 47 14 0 75 39 81 53 2 4 10 7 17 7 15 0 146
103 220 172 28 26 57 48 66 48 8 0 19 4 25 10 5 5 35 22 67 37 58 29 175 120
176 138 1 12 96 95 109 95 17 0 157 88 182 115 13 14 30 25 38 25 17 0 71 38
122 87 32 31 48 38 78 34 6 -1 12 3 12 9 0 5 8 10 19 10 10 0 41 24 68 53 82
85 121 110 166 103 37 -6 67 8 67 31 0 5 13 21 28 36 22 21 31 24 40 15 9 -9
12 -8 13 7 1 11 1 23 0 28 0 4 11 7 27 7 18 0 42 14 71 40 26 24 50 39 59 35
8 -3 26 6 40 20 13 14 31 25 38 25 19 0 85 38 115 66 14 13 35 24 47 24 12 0
36 13 55 29 18 16 45 33 60 36 15 4 46 25 69 46 24 21 51 39 60 39 25 0 66 20
131 63 32 21 72 43 90 49 18 6 36 15 42 19 5 5 17 9 26 9 17 0 126 54 143 71
6 5 20 9 31 9 26 0 78 25 95 45 7 8 19 15 26 15 7 0 28 9 46 20 18 11 40 20
48 20 8 0 52 18 98 40 46 22 86 40 91 40 4 0 16 9 26 20 12 14 31 20 59 20 23
0 55 9 74 20 18 11 42 20 55 20 12 0 29 5 37 10 28 18 42 10 58 -32z m9920
-1710 c22 -18 50 -50 62 -70 l21 -37 -22 -31 c-13 -16 -25 -26 -28 -21 -8 11
-254 28 -288 19 -25 -7 -25 -6 -7 10 11 9 35 29 54 44 19 14 57 47 84 72 27
25 57 46 66 46 10 0 36 -15 58 -32z m-16688 -9604 c0 -3 -5 -14 -10 -24 -9
-17 -14 -18 -35 -8 -29 13 -32 25 -7 31 26 7 52 8 52 1z m8324 -516 c14 -32
14 -38 1 -48 -18 -15 -11 -53 17 -92 14 -21 16 -32 8 -52 -5 -14 -13 -26 -18
-26 -17 0 -32 51 -32 106 0 30 -4 62 -9 72 -4 9 -16 31 -25 49 -16 31 -16 32
6 35 29 5 34 1 52 -44z m-536 -50 c-2 -6 -10 -14 -16 -16 -7 -2 -10 2 -6 12 7
18 28 22 22 4z m-6926 -157 c14 -36 14 -40 -1 -45 -9 -3 -22 -9 -28 -12 -10
-4 -13 8 -13 45 0 63 20 69 42 12z"/>
<path d="M9155 13064 c-5 -2 -41 -8 -80 -13 -85 -12 -124 -20 -150 -31 -11 -5
-60 -11 -110 -14 -138 -9 -226 -22 -265 -39 -58 -25 -140 -47 -179 -47 -20 0
-53 -9 -74 -20 -20 -11 -52 -20 -69 -20 -18 0 -46 -8 -63 -17 -124 -68 -201
-103 -242 -109 -26 -3 -52 -10 -58 -14 -32 -25 -89 -50 -113 -50 -15 0 -51
-11 -80 -25 -31 -14 -72 -25 -96 -25 -38 0 -49 -6 -100 -55 -31 -30 -64 -55
-74 -55 -10 0 -22 -4 -28 -8 -5 -5 -25 -15 -44 -22 -19 -8 -56 -31 -81 -52
-25 -21 -68 -45 -96 -53 -35 -10 -67 -30 -98 -60 -25 -25 -51 -45 -57 -45 -6
0 -32 -19 -58 -42 -25 -24 -62 -56 -81 -73 -19 -16 -39 -37 -45 -46 -5 -8 -45
-44 -89 -79 -84 -66 -134 -117 -135 -137 0 -7 -29 -42 -64 -78 -35 -36 -76
-84 -92 -107 -16 -24 -59 -82 -96 -129 -38 -47 -68 -91 -68 -96 0 -5 -9 -18
-20 -28 -11 -10 -20 -30 -20 -44 0 -14 -16 -59 -35 -98 -24 -50 -35 -86 -35
-117 0 -25 -4 -47 -9 -50 -10 -7 -5 -192 6 -209 3 -6 12 -35 19 -66 24 -111
69 -211 96 -219 10 -2 18 -12 18 -22 0 -16 36 -61 120 -149 14 -15 50 -47 80
-71 30 -25 92 -81 136 -125 45 -44 103 -96 130 -115 26 -19 77 -62 113 -96 88
-82 145 -118 210 -135 34 -9 68 -27 96 -51 24 -21 50 -38 58 -38 9 0 19 -4 22
-10 3 -5 21 -10 40 -10 19 0 37 -4 40 -10 3 -5 14 -10 23 -10 18 0 145 -61
171 -83 23 -19 108 -54 166 -67 28 -7 66 -19 85 -28 31 -14 62 -21 153 -36 15
-3 33 -9 40 -13 23 -14 123 -24 292 -28 93 -3 183 -9 198 -15 20 -7 35 -6 49
1 17 9 71 15 201 19 15 1 39 1 53 0 16 -2 35 7 52 23 16 15 63 37 112 53 47
15 89 31 94 35 6 5 24 9 40 9 17 0 45 9 61 20 17 12 47 20 71 20 28 0 57 10
98 35 32 19 62 35 65 35 4 0 31 12 61 26 33 16 78 28 122 31 38 3 71 10 74 14
3 5 14 9 24 9 10 0 54 16 97 36 48 21 91 35 113 34 55 -3 58 -2 97 34 47 41
75 56 105 56 35 0 111 29 133 51 32 31 94 69 114 69 10 0 26 9 36 20 10 11 30
20 46 20 15 0 50 15 77 34 28 18 64 38 82 44 17 6 43 20 57 32 14 11 35 20 47
20 12 0 37 11 55 24 18 14 55 30 82 36 27 7 55 20 62 29 16 23 65 54 89 58 10
2 41 21 69 43 36 29 60 40 84 40 23 0 42 9 62 28 15 15 51 43 78 62 28 19 70
50 95 69 25 18 61 40 80 48 19 8 44 23 55 33 11 11 37 26 57 35 21 8 45 26 53
39 9 13 33 32 53 42 38 18 118 96 127 123 3 9 15 21 27 26 12 6 26 19 32 29
13 23 68 74 107 99 16 10 38 35 51 55 12 20 41 57 64 83 33 37 45 61 54 106 7
32 16 63 20 68 30 38 47 83 38 99 -6 10 -10 47 -10 82 0 35 -4 66 -9 69 -5 4
-9 14 -9 24 0 9 -13 44 -30 76 -16 32 -30 72 -30 89 0 52 -25 107 -57 127 -17
11 -50 47 -74 80 -67 93 -144 181 -185 209 -20 14 -50 38 -68 54 -33 30 -97
66 -117 66 -7 0 -22 9 -33 19 -23 21 -92 61 -105 61 -5 0 -23 14 -41 30 -24
23 -42 30 -72 30 -27 0 -50 8 -74 27 -24 17 -52 28 -86 31 -43 4 -58 11 -84
38 -19 20 -41 34 -55 34 -14 0 -41 11 -61 25 -20 14 -42 25 -49 25 -6 0 -28 9
-48 19 -66 35 -143 61 -178 61 -18 0 -44 7 -56 15 -12 8 -56 19 -97 26 -41 6
-102 20 -135 31 -33 11 -75 23 -93 25 -18 3 -35 9 -38 14 -3 5 -43 9 -89 9
-46 0 -87 5 -90 10 -8 12 -85 13 -104 1 -8 -5 -33 -1 -65 10 -37 14 -74 19
-136 18 -53 -2 -94 3 -109 10 -15 8 -40 11 -70 6 -62 -9 -248 -8 -289 0 -21 5
-42 3 -58 -5 -17 -10 -30 -10 -46 -3 -13 5 -27 9 -33 7z"/>
<path d="M14776 12892 c-13 -13 -83 -32 -118 -32 -27 0 -49 -10 -87 -40 -28
-22 -58 -40 -68 -40 -10 -1 -34 -9 -53 -20 -19 -10 -45 -24 -57 -29 -13 -6
-23 -15 -23 -20 0 -6 -11 -16 -24 -23 -13 -7 -40 -33 -60 -58 -20 -25 -43 -52
-51 -61 -8 -9 -15 -20 -15 -25 0 -5 -8 -14 -19 -21 -34 -21 -61 -92 -76 -199
-12 -81 -12 -108 -3 -123 9 -15 9 -23 -1 -34 -15 -19 3 -59 42 -95 14 -13 31
-37 37 -53 7 -16 16 -29 20 -29 4 0 10 -8 12 -18 3 -10 35 -33 72 -51 36 -18
66 -40 66 -47 0 -8 8 -17 18 -20 9 -3 37 -15 62 -26 25 -11 54 -24 65 -28 11
-4 38 -16 60 -26 75 -33 257 -60 298 -45 13 5 44 7 70 4 26 -3 52 -1 60 5 7 6
53 12 102 13 88 3 131 15 155 44 7 8 16 12 22 9 5 -3 20 1 33 10 13 9 29 16
35 16 14 0 148 100 179 134 13 14 28 23 33 20 9 -6 55 45 75 84 7 13 13 35 13
48 0 13 5 24 10 24 6 0 10 16 10 36 0 19 4 43 9 53 14 24 -10 168 -35 211 -10
19 -32 52 -47 75 -68 98 -87 130 -87 149 0 28 -36 86 -54 86 -8 0 -44 18 -80
40 -36 22 -70 40 -76 40 -6 0 -23 9 -38 20 -15 11 -47 22 -72 24 -25 3 -66 9
-90 15 -49 10 -315 13 -324 3z"/>
<path d="M4555 12570 c-44 -3 -90 -11 -102 -18 -12 -6 -29 -9 -37 -6 -9 4 -23
1 -31 -6 -8 -6 -19 -9 -24 -6 -5 4 -26 -5 -47 -19 -20 -14 -47 -25 -60 -25
-12 0 -26 -4 -29 -10 -6 -9 -88 -50 -157 -78 -14 -6 -39 -27 -55 -48 -15 -20
-36 -45 -46 -56 -10 -10 -34 -40 -53 -66 -20 -26 -39 -49 -43 -52 -4 -3 -19
-32 -35 -65 -15 -33 -38 -82 -51 -110 -21 -46 -23 -61 -20 -175 2 -69 6 -134
11 -145 4 -11 26 -38 49 -60 22 -22 49 -56 59 -75 25 -49 70 -76 139 -83 32
-3 65 -11 73 -18 8 -6 17 -9 21 -6 3 4 12 2 20 -5 9 -7 70 -12 171 -13 215 -2
415 25 471 64 42 29 141 81 155 81 66 0 232 156 286 269 30 61 32 74 33 171 0
97 -2 109 -26 150 -14 25 -37 56 -49 70 -13 14 -32 42 -43 64 -11 21 -30 45
-42 53 -12 8 -25 23 -28 34 -4 10 -13 19 -21 19 -8 0 -14 3 -14 8 0 4 -26 15
-58 25 -45 14 -60 25 -73 50 -16 33 -70 70 -105 72 -11 1 -25 5 -31 8 -16 10
-113 13 -208 7z"/>
<path d="M1720 9725 c0 -8 5 -15 10 -15 6 0 10 7 10 15 0 8 -4 15 -10 15 -5 0
-10 -7 -10 -15z"/>
<path d="M1570 8066 c0 -8 5 -18 10 -21 6 -3 10 1 10 9 0 8 -4 18 -10 21 -5 3
-10 -1 -10 -9z"/>
<path d="M720 5230 c0 -5 5 -10 10 -10 6 0 10 5 10 10 0 6 -4 10 -10 10 -5 0
-10 -4 -10 -10z"/>
<path d="M344 5205 c-4 -8 -20 -16 -38 -16 -23 -1 -26 -3 -8 -6 28 -6 94 16
87 28 -9 14 -35 11 -41 -6z"/>
<path d="M515 5210 c-8 -13 20 -24 41 -16 20 8 9 26 -16 26 -10 0 -22 -5 -25
-10z"/>
<path d="M605 5210 c-8 -12 20 -24 35 -15 5 3 10 10 10 16 0 12 -37 12 -45 -1z"/>
<path d="M800 5205 c0 -8 4 -15 9 -15 5 0 11 7 15 15 3 9 0 15 -9 15 -8 0 -15
-7 -15 -15z"/>
<path d="M46 5188 c-3 -7 -7 -30 -10 -51 -4 -35 -3 -36 15 -26 14 7 19 19 17
37 -2 18 2 27 12 28 55 4 55 4 40 14 -21 14 -70 12 -74 -2z"/>
<path d="M7748 5183 c7 -3 16 -2 19 1 4 3 -2 6 -13 5 -11 0 -14 -3 -6 -6z"/>
<path d="M7958 5183 c12 -2 22 -9 22 -14 0 -5 10 -9 23 -9 22 1 22 1 -3 15
-14 8 -34 14 -45 13 -17 -1 -17 -1 3 -5z"/>
<path d="M8155 5173 c17 -16 32 -18 93 -15 91 5 95 20 5 20 -38 -1 -79 2 -93
6 -25 8 -25 8 -5 -11z"/>
<path d="M8355 5170 c-3 -5 1 -10 9 -10 9 0 16 5 16 10 0 6 -4 10 -9 10 -6 0
-13 -4 -16 -10z"/>
<path d="M8465 5170 c-4 -6 9 -10 32 -9 30 0 34 2 18 9 -27 12 -43 12 -50 0z"/>
<path d="M8630 5170 c0 -5 14 -10 31 -10 17 0 28 4 24 10 -3 6 -17 10 -31 10
-13 0 -24 -4 -24 -10z"/>
<path d="M0 5136 c0 -9 5 -16 10 -16 6 0 10 4 10 9 0 6 -4 13 -10 16 -5 3 -10
-1 -10 -9z"/>
<path d="M21280 4715 c0 -8 9 -15 20 -15 24 0 27 15 4 24 -22 9 -24 8 -24 -9z"/>
<path d="M21340 4670 c0 -5 5 -10 10 -10 6 0 10 5 10 10 0 6 -4 10 -10 10 -5
0 -10 -4 -10 -10z"/>
</g>
</svg>
