<?xml version="1.0" standalone="no"?>
<!DOCTYPE svg PUBLIC "-//W3C//DTD SVG 20010904//EN"
 "http://www.w3.org/TR/2001/REC-SVG-20010904/DTD/svg10.dtd">
<svg version="1.0" xmlns="http://www.w3.org/2000/svg"
 width="1068.000000pt" height="1068.000000pt" viewBox="0 0 1068.000000 1068.000000"
 preserveAspectRatio="xMidYMid meet">
<metadata>
Created by potrace 1.14, written by Peter Selinger 2001-2017
</metadata>
<g transform="translate(0.000000,1068.000000) scale(0.100000,-0.100000)"
fill="#000000" stroke="none">
<path d="M7720 10060 c-8 -5 -34 -9 -57 -8 -47 1 -197 -20 -228 -32 -11 -4
-33 -13 -48 -19 -15 -6 -37 -11 -49 -11 -11 0 -29 -11 -40 -25 -11 -14 -26
-25 -33 -25 -7 0 -20 -6 -27 -13 -7 -8 -30 -19 -50 -26 -19 -6 -46 -26 -59
-43 -67 -88 -88 -110 -100 -102 -4 2 -13 -11 -20 -29 -7 -17 -23 -46 -36 -63
-13 -17 -23 -38 -23 -47 0 -9 -6 -20 -14 -24 -15 -8 -96 -157 -96 -176 0 -6
-10 -21 -21 -33 -12 -13 -24 -41 -26 -65 -3 -23 -13 -66 -23 -95 -10 -29 -15
-55 -12 -59 4 -4 -5 -1 -20 6 -16 7 -28 17 -28 23 -1 16 -26 47 -42 50 -7 1
-35 18 -62 38 -55 40 -99 49 -206 43 -70 -4 -81 -6 -120 -22 -14 -6 -28 -9
-32 -6 -5 2 -8 0 -8 -5 0 -14 -72 -82 -87 -82 -7 0 -19 -16 -27 -35 -8 -19
-19 -35 -25 -35 -12 0 -101 -150 -101 -172 0 -9 -5 -29 -12 -45 -6 -15 -11
-31 -10 -34 0 -3 -5 -44 -13 -90 -7 -46 -12 -86 -10 -89 2 -3 6 -44 9 -93 3
-48 10 -96 16 -108 7 -11 10 -22 8 -23 -18 -11 -57 -23 -62 -19 -7 7 -335 5
-386 -2 -19 -3 -91 -7 -159 -10 -69 -3 -130 -10 -135 -14 -10 -8 -175 -21
-271 -22 -22 0 -96 -11 -165 -24 -69 -13 -145 -27 -170 -30 -25 -4 -81 -16
-125 -27 -44 -11 -92 -22 -108 -25 -15 -3 -30 -9 -33 -14 -3 -5 -23 -9 -45 -9
-21 0 -47 -4 -57 -9 -9 -5 -35 -14 -57 -20 -22 -5 -58 -16 -80 -23 -22 -6 -44
-11 -49 -10 -4 2 -13 -1 -20 -6 -6 -5 -37 -17 -68 -26 -32 -10 -60 -22 -64
-27 -3 -5 -15 -9 -27 -9 -12 0 -34 -6 -48 -14 -21 -10 -58 -23 -89 -31 -36 -8
-160 -62 -245 -107 -63 -33 -74 -38 -89 -38 -7 0 -19 -7 -26 -15 -7 -8 -22
-15 -34 -15 -11 0 -34 -13 -49 -30 -16 -16 -35 -30 -42 -30 -18 0 -48 -16
-160 -89 -22 -14 -42 -29 -45 -32 -3 -4 -15 -9 -28 -13 -12 -4 -34 -18 -50
-30 -15 -13 -74 -49 -130 -81 -57 -32 -106 -64 -109 -72 -3 -7 -10 -13 -17
-13 -6 0 -40 -21 -76 -46 -36 -24 -87 -60 -115 -78 -27 -18 -59 -43 -69 -55
-11 -11 -24 -21 -30 -21 -6 0 -24 -13 -39 -30 -16 -16 -35 -30 -42 -30 -13 0
-155 -102 -205 -147 -14 -13 -30 -23 -36 -23 -6 0 -21 -9 -33 -19 -12 -11 -39
-33 -59 -49 -20 -17 -55 -47 -77 -66 -22 -20 -45 -36 -51 -36 -5 0 -23 -18
-40 -40 -16 -22 -33 -40 -37 -40 -10 0 -18 -8 -82 -85 -56 -68 -93 -105 -104
-105 -7 0 -98 -116 -132 -170 -9 -14 -25 -34 -35 -45 -11 -11 -21 -29 -22 -40
-2 -11 -9 -27 -16 -35 -7 -8 -28 -41 -46 -72 -19 -32 -38 -58 -42 -58 -4 0 -5
-7 -2 -15 4 -8 2 -15 -4 -15 -8 0 -21 -31 -24 -60 -1 -3 -11 -21 -23 -40 -42
-67 -115 -229 -121 -272 -4 -24 -11 -49 -17 -56 -8 -10 -14 -34 -31 -118 -1
-7 -8 -19 -15 -27 -7 -9 -13 -28 -15 -44 -1 -15 -5 -33 -8 -39 -4 -6 -10 -33
-13 -60 -4 -27 -12 -58 -19 -69 -7 -11 -17 -38 -21 -60 -5 -22 -10 -44 -11
-50 -2 -5 -12 -46 -22 -90 -11 -44 -25 -93 -32 -110 -7 -16 -14 -48 -16 -70
-3 -22 -5 -46 -6 -52 -1 -7 -5 -13 -9 -13 -3 0 -7 -17 -7 -37 -1 -40 -18 -118
-30 -137 -4 -6 -8 -27 -9 -46 0 -19 -4 -53 -8 -75 -3 -22 -6 -49 -7 -60 0 -11
-5 -36 -11 -55 -6 -19 -11 -44 -12 -55 -2 -23 -12 -110 -21 -175 -3 -25 -7
-76 -8 -115 -3 -108 -17 -225 -27 -225 -5 0 -9 14 -9 30 0 17 -5 30 -11 30 -5
0 -7 -5 -4 -10 4 -6 0 -61 -8 -123 -17 -125 -16 -115 -21 -288 -1 -69 -7 -132
-12 -140 -8 -12 -11 -103 -13 -334 -1 -27 0 -87 2 -132 1 -46 -1 -84 -5 -85
-4 -2 -30 -32 -57 -68 l-50 -64 -95 -3 c-70 -2 -96 1 -96 10 0 8 -22 12 -70
12 -60 0 -70 -3 -70 -17 0 -19 -14 -22 -110 -19 -96 2 -100 -1 -100 -69 0 -32
5 -62 10 -65 12 -7 168 -8 245 -1 115 11 225 13 225 5 0 -4 -11 -14 -24 -21
-14 -7 -25 -16 -25 -20 -1 -5 -1 -12 -1 -16 0 -4 -15 -24 -33 -44 -47 -52 -67
-80 -67 -95 0 -7 -9 -17 -19 -22 -25 -14 -71 -93 -71 -124 0 -33 66 -100 124
-125 43 -20 45 -22 36 -47 -14 -38 3 -312 20 -329 6 -6 10 -37 10 -71 0 -34 4
-65 9 -70 6 -6 12 -35 14 -65 l4 -55 37 -3 c20 -2 36 -8 36 -14 0 -10 17 -51
52 -124 5 -12 8 -30 7 -40 -2 -10 2 -29 9 -41 7 -13 10 -23 6 -23 -3 0 -1 -6
5 -14 12 -14 18 -34 28 -88 3 -16 9 -28 13 -28 4 0 10 -22 14 -50 4 -27 13
-56 21 -64 8 -8 15 -24 15 -36 0 -11 8 -37 19 -58 11 -22 17 -49 14 -68 -3
-21 1 -36 13 -49 10 -10 19 -25 20 -33 2 -8 7 -19 13 -25 6 -6 11 -25 11 -43
0 -28 11 -59 42 -114 4 -8 12 -25 17 -36 5 -12 22 -25 38 -29 15 -3 35 -13 43
-20 16 -14 172 -95 193 -99 25 -6 93 -39 110 -54 10 -9 32 -17 49 -18 17 -1
40 -7 52 -13 26 -13 257 -44 316 -43 14 0 57 0 95 0 88 0 92 0 135 8 19 3 73
7 120 9 164 7 274 17 290 25 9 5 40 9 69 8 28 0 58 6 66 12 8 7 15 9 15 4 0
-5 4 -4 8 3 9 15 107 41 180 49 57 6 156 37 178 55 8 6 14 8 14 4 0 -4 7 -2
15 5 8 7 15 9 15 5 0 -4 11 0 25 9 13 9 31 16 39 16 19 0 85 30 109 50 10 8
33 44 50 80 17 36 37 71 43 77 7 7 11 26 10 43 -1 16 2 30 7 30 4 0 6 4 3 9
-3 5 0 14 7 20 21 17 57 159 57 226 0 18 7 49 15 68 8 20 15 54 15 75 0 22 7
59 16 83 8 24 19 76 24 114 4 39 14 84 20 100 7 17 15 41 17 55 2 14 8 27 14
28 5 2 9 10 9 18 0 8 4 22 10 32 5 9 16 42 24 72 19 75 35 118 57 162 10 20
19 46 19 56 0 11 11 36 25 56 13 20 28 51 33 69 9 32 18 36 59 23 16 -5 28 -1
42 13 12 12 25 21 30 21 5 0 18 12 29 28 14 21 18 42 17 92 l-2 66 61 -4 c72
-4 125 22 127 60 3 86 -15 168 -40 176 -6 2 -11 10 -11 18 0 8 -7 17 -15 20
-22 9 -19 35 3 28 14 -5 15 -4 2 5 -8 6 -22 11 -30 11 -9 0 -23 9 -32 19 -15
18 -15 19 9 24 14 3 40 1 57 -4 37 -11 232 -22 408 -23 132 -1 146 -6 108 -39
-11 -9 -20 -14 -20 -11 0 6 -81 -76 -115 -117 -33 -40 -42 -64 -43 -111 -1
-48 -2 -47 85 -128 18 -16 37 -30 42 -30 5 0 7 -9 4 -20 -3 -11 -9 -20 -13
-20 -10 0 -48 -79 -55 -115 -8 -41 19 -114 52 -142 19 -17 39 -23 72 -23 69 0
85 -16 100 -100 7 -39 10 -74 7 -77 -3 -3 -2 -11 3 -17 5 -6 14 -36 20 -66 6
-30 15 -75 20 -100 5 -25 12 -76 15 -115 3 -38 10 -87 15 -108 5 -20 7 -46 4
-56 -3 -11 0 -28 6 -39 6 -11 13 -65 16 -119 9 -167 13 -206 38 -368 15 -94
39 -165 56 -165 6 0 11 -10 11 -22 0 -34 8 -41 85 -80 39 -20 93 -48 120 -63
59 -32 144 -64 200 -74 23 -4 47 -11 54 -16 8 -4 52 -9 98 -11 46 -2 88 -6 93
-9 4 -3 44 -7 87 -10 43 -3 98 -8 123 -12 39 -6 249 -11 560 -14 126 -1 276 8
291 16 7 5 35 10 63 12 28 3 56 9 63 15 8 6 31 10 53 9 22 -1 46 -2 53 -2 29
-1 123 12 151 21 42 13 85 22 121 25 17 1 57 7 90 13 33 6 83 15 111 20 50 8
98 35 140 76 22 23 58 109 70 166 3 19 10 40 14 45 4 6 10 30 14 55 4 25 11
59 16 75 14 49 31 146 35 203 2 29 7 57 11 63 3 6 8 50 10 97 5 98 7 126 23
268 6 56 15 114 21 130 6 16 13 51 16 78 3 28 10 54 17 58 7 4 37 7 67 7 35
-1 75 7 110 21 30 12 60 23 65 24 32 6 55 30 61 64 4 20 11 42 16 48 4 6 10
33 12 60 4 45 6 49 28 46 14 -2 31 4 38 12 7 9 21 16 31 16 11 0 39 18 62 40
51 46 77 122 52 150 -13 14 -15 20 -15 38 0 5 -11 21 -24 37 -22 25 -23 31
-11 57 9 24 10 44 0 92 l-11 63 110 -3 c61 -2 212 -5 336 -8 124 -3 239 -7
255 -9 17 -3 38 -1 47 4 9 5 19 5 22 1 3 -5 112 -8 243 -7 136 1 243 -3 251
-8 7 -6 17 -6 25 0 6 4 65 8 129 7 75 0 115 3 111 9 -4 6 -1 7 6 2 17 -10 253
-14 304 -4 23 4 44 4 47 0 3 -4 28 -7 55 -6 28 1 53 -3 57 -8 7 -12 68 -12 77
0 9 12 185 1 200 -13 2 -2 11 1 21 6 10 6 30 6 51 0 29 -8 205 -22 276 -22 13
0 20 -5 17 -10 -4 -6 3 -5 15 1 17 10 21 21 21 66 0 42 -4 55 -15 56 -8 1 -18
2 -22 3 -67 17 -130 29 -138 27 -15 -5 -53 -2 -135 9 -41 5 -113 11 -160 13
l-85 2 3 130 c2 72 6 148 8 170 12 97 17 182 28 555 6 188 6 160 2 249 -2 41
2 98 9 127 7 29 11 55 9 57 -5 5 -5 77 0 241 2 90 1 167 -5 177 -5 11 -5 27 0
41 6 16 5 36 -4 60 -8 23 -11 70 -8 130 13 258 2 499 -23 550 -8 15 -17 68
-21 118 -3 50 -10 93 -14 96 -5 2 -6 11 -2 19 3 9 0 22 -7 30 -6 7 -13 44 -15
81 -2 37 -9 72 -14 77 -6 6 -11 24 -11 40 0 15 -4 36 -9 45 -5 9 -11 33 -14
53 -2 19 -9 44 -14 55 -6 10 -8 25 -6 32 3 7 0 19 -7 27 -6 8 -9 18 -6 23 3 5
-17 53 -44 106 -27 54 -47 103 -44 110 3 8 -4 31 -15 52 -12 21 -21 44 -21 51
0 7 -4 13 -9 13 -5 0 -11 18 -15 39 -3 22 -10 41 -14 43 -15 6 -62 75 -62 91
0 9 -9 22 -20 29 -11 7 -20 23 -20 35 0 12 -12 37 -27 55 -16 18 -37 49 -47
68 -11 19 -30 48 -43 63 -13 16 -23 35 -23 43 0 7 -18 31 -40 51 -22 21 -40
43 -40 49 0 6 -13 25 -30 42 -16 18 -30 38 -30 46 0 7 -20 38 -45 68 -25 30
-45 58 -45 62 0 6 -41 54 -102 118 -16 16 -28 33 -28 38 0 6 -23 32 -51 59
-27 26 -59 66 -71 87 -11 22 -29 46 -39 55 -11 9 -19 21 -19 26 0 5 -18 24
-39 41 -22 18 -50 50 -62 72 -13 22 -26 40 -31 40 -4 0 -8 8 -8 18 0 9 -21 35
-47 57 -25 22 -69 63 -97 91 -28 28 -63 59 -78 69 -16 9 -28 25 -28 35 0 20
-33 53 -43 43 -4 -3 -7 -2 -7 4 0 6 16 14 35 17 19 4 35 11 35 16 0 6 9 10 21
10 20 0 119 86 119 105 0 6 14 28 30 49 17 22 30 45 30 53 0 7 11 45 24 85 29
85 27 180 -5 235 -10 18 -23 51 -29 73 -7 26 -28 58 -59 89 -27 27 -57 63 -67
80 -13 22 -31 35 -58 42 -22 6 -51 19 -64 30 -14 10 -29 16 -34 13 -5 -3 -15
0 -23 6 -9 8 -49 11 -112 10 -54 -1 -111 -2 -127 -1 -28 1 -28 2 -13 19 10 10
17 26 17 35 0 8 7 23 15 31 9 8 18 32 21 53 2 20 11 47 19 60 8 12 15 32 15
44 0 12 8 31 17 41 46 51 59 352 24 533 -22 116 -64 242 -91 277 -121 152
-200 211 -315 238 -33 7 -77 22 -98 32 -22 11 -41 17 -44 14 -3 -3 -22 2 -42
10 -44 19 -121 26 -141 14z m-25 -140 c11 4 26 3 33 -2 6 -6 25 -8 41 -5 16 3
32 3 35 0 6 -6 19 -9 71 -17 11 -1 30 -8 42 -14 12 -7 44 -17 72 -23 28 -6 58
-17 65 -25 8 -8 21 -14 28 -14 7 0 30 -18 51 -40 20 -22 43 -40 50 -40 18 0
72 -59 85 -95 7 -16 14 -46 17 -65 3 -19 14 -66 26 -105 16 -54 21 -97 21
-190 0 -169 -2 -196 -18 -227 -8 -15 -14 -36 -14 -46 0 -11 -9 -31 -20 -45
-11 -14 -20 -38 -20 -54 0 -16 -9 -46 -20 -68 -11 -22 -20 -47 -20 -56 0 -9
-7 -22 -15 -29 -8 -6 -14 -15 -13 -18 1 -4 -6 -22 -15 -40 -10 -18 -17 -38
-16 -45 3 -23 -1 -36 -16 -51 -13 -13 -14 -23 -6 -53 18 -66 63 -87 110 -49 9
7 67 11 168 10 122 -1 157 -4 171 -16 9 -9 33 -23 52 -33 42 -22 61 -40 64
-63 2 -9 9 -17 17 -17 7 0 24 -18 36 -40 26 -47 30 -67 7 -39 -13 15 -13 14 1
-10 9 -15 15 -37 12 -47 -3 -10 -2 -19 2 -19 3 0 5 -37 3 -82 -4 -114 -23
-147 -127 -232 -21 -16 -57 -29 -114 -40 -46 -8 -89 -20 -96 -26 -28 -23 -29
-110 -1 -110 15 0 66 -55 66 -70 0 -5 4 -10 8 -10 4 0 15 -13 25 -28 19 -33
176 -193 213 -217 14 -9 30 -27 36 -40 6 -14 19 -27 30 -30 10 -4 18 -10 18
-15 0 -16 81 -118 106 -135 14 -9 24 -25 24 -40 0 -13 8 -30 18 -37 10 -7 31
-30 46 -50 16 -21 33 -38 40 -38 6 0 22 -17 36 -37 14 -20 39 -53 55 -74 17
-20 37 -47 45 -59 8 -13 25 -34 38 -48 12 -14 22 -29 22 -33 0 -5 14 -24 32
-43 17 -19 44 -56 58 -83 15 -26 33 -47 39 -45 6 1 14 -6 18 -15 4 -10 14 -25
23 -33 9 -8 27 -33 40 -55 13 -22 28 -43 33 -46 5 -4 11 -18 12 -31 3 -24 61
-118 73 -118 4 0 18 -25 32 -56 13 -31 40 -80 61 -109 36 -52 51 -83 46 -96
-1 -4 6 -15 15 -25 9 -11 20 -31 23 -47 4 -15 11 -30 16 -33 5 -3 9 -15 9 -27
0 -12 11 -44 25 -71 13 -27 27 -65 31 -85 3 -20 14 -61 24 -91 9 -30 25 -82
33 -115 35 -131 37 -141 42 -225 2 -30 3 -58 4 -62 1 -5 0 -9 -1 -10 -1 -2 4
-13 11 -25 6 -13 16 -60 22 -105 6 -45 15 -88 20 -94 5 -6 7 -32 5 -57 -3 -28
0 -47 6 -49 7 -3 10 -24 9 -54 -2 -27 -3 -58 -2 -69 1 -11 3 -137 5 -280 2
-143 6 -345 9 -449 4 -128 3 -195 -5 -209 -6 -12 -11 -91 -13 -191 -1 -159
-12 -572 -15 -606 0 -8 -1 -46 -1 -85 0 -38 -2 -88 -4 -110 -2 -22 -6 -78 -10
-125 -4 -47 -8 -94 -9 -106 -1 -11 -6 -25 -10 -32 -7 -12 -113 -15 -121 -3 -2
4 -37 6 -77 4 -101 -6 -96 -6 -163 -5 -33 1 -103 1 -155 1 -52 -1 -139 0 -192
2 -54 2 -99 1 -102 -2 -5 -5 -480 -2 -508 4 -10 2 -20 6 -24 10 -4 3 -14 2
-23 -2 -12 -6 -266 -7 -266 -1 0 1 -54 3 -120 6 -105 4 -157 8 -175 14 -3 1
-41 2 -86 3 l-81 0 -11 43 c-9 32 -20 47 -42 59 -27 14 -31 14 -36 0 -3 -8 -4
-22 0 -30 13 -34 -4 -12 -22 28 -17 38 -55 82 -137 155 -14 12 -25 20 -25 17
0 -12 -75 36 -95 61 -11 14 -32 28 -46 29 -13 1 -42 10 -64 20 -69 29 -179 65
-200 65 -12 0 -25 4 -30 9 -6 6 -30 12 -54 15 -24 3 -45 7 -48 10 -2 2 16 24
40 50 24 25 47 42 51 39 3 -4 6 -1 6 6 0 7 23 35 51 64 28 28 57 63 64 78 13
23 92 126 122 157 7 7 13 21 13 30 0 10 11 29 24 44 14 14 22 28 20 31 -3 3 4
15 15 26 26 26 28 87 4 113 -16 18 -59 24 -78 10 -20 -14 -63 -79 -79 -117 -9
-22 -20 -42 -24 -45 -12 -9 -68 -84 -81 -107 -6 -12 -23 -34 -36 -49 -14 -15
-25 -31 -25 -35 0 -5 -6 -9 -14 -9 -8 0 -25 -15 -38 -32 -12 -18 -30 -40 -38
-49 -8 -10 -28 -33 -45 -53 -16 -20 -35 -36 -40 -36 -6 0 -19 -13 -28 -30 -10
-16 -21 -30 -26 -30 -4 0 -48 -40 -99 -90 -50 -49 -98 -90 -106 -90 -8 0 -20
-8 -25 -17 -6 -10 -11 -15 -11 -10 0 10 -40 -31 -40 -42 0 -5 -25 -24 -56 -42
-31 -18 -66 -43 -77 -56 -12 -13 -32 -23 -46 -23 -18 0 -32 -10 -46 -30 -11
-16 -27 -30 -36 -30 -9 0 -22 -7 -29 -15 -7 -8 -17 -12 -22 -9 -5 3 -17 0 -26
-8 -29 -25 -129 -71 -144 -66 -7 3 -31 -4 -53 -15 -35 -17 -72 -21 -140 -14
-11 1 -41 14 -67 29 -26 16 -51 28 -57 28 -6 0 -11 7 -11 15 0 8 -10 23 -22
35 -12 11 -18 20 -14 20 5 0 3 7 -4 15 -21 26 -48 84 -55 122 -9 51 -17 106
-17 118 1 6 4 62 7 125 3 63 7 131 10 150 2 19 7 75 11 125 3 51 11 93 17 97
7 4 13 29 14 55 1 26 4 60 6 76 2 15 0 30 -5 33 -4 3 -6 9 -3 14 3 5 -8 16
-25 25 -27 14 -33 14 -59 1 -18 -10 -31 -26 -34 -43 -15 -75 -24 -111 -32
-123 -5 -8 -8 -34 -6 -58 1 -24 -3 -49 -9 -57 -6 -7 -13 -61 -16 -120 -7 -163
-18 -174 -175 -181 -36 -1 -83 -7 -104 -13 -21 -6 -42 -8 -47 -5 -5 3 -25 -3
-46 -13 -20 -11 -64 -25 -97 -32 -59 -12 -79 -20 -160 -56 -22 -10 -45 -18
-51 -17 -14 3 -221 -95 -228 -107 -4 -5 -19 -12 -36 -16 -16 -3 -48 -23 -70
-43 -31 -27 -50 -36 -73 -34 -18 1 -80 4 -139 7 -59 2 -136 8 -170 11 -35 4
-100 6 -146 5 -52 -1 -89 2 -97 9 -8 7 -42 11 -77 10 -192 -5 -192 -5 -225 20
-18 13 -30 27 -27 31 6 11 -73 129 -86 129 -6 0 -10 9 -10 20 0 27 -21 70 -35
70 -6 0 -22 11 -35 25 -30 32 -212 119 -274 131 -36 7 -82 22 -68 23 6 1 12
10 12 20 0 10 11 29 25 42 13 13 25 30 25 37 0 16 73 116 98 134 10 7 24 22
30 34 6 12 27 40 47 63 39 48 44 80 16 105 -16 15 -29 17 -71 11 -43 -6 -53
-12 -63 -34 -6 -14 -26 -41 -44 -59 -18 -19 -33 -38 -33 -43 0 -4 -18 -25 -40
-45 -22 -20 -38 -40 -35 -43 2 -4 -12 -27 -31 -50 -19 -24 -34 -50 -34 -57 0
-7 -8 -19 -19 -26 -18 -13 -57 -78 -46 -78 3 0 -9 -15 -28 -32 -19 -18 -38
-44 -42 -57 -4 -14 -26 -45 -49 -69 -22 -24 -47 -53 -56 -66 -19 -28 -131
-136 -142 -136 -4 0 -37 -27 -75 -60 -37 -33 -75 -60 -85 -60 -10 0 -23 -9
-30 -20 -7 -11 -19 -20 -26 -20 -8 0 -27 -9 -42 -20 -16 -11 -34 -18 -42 -15
-7 3 -38 6 -68 8 -97 6 -298 115 -392 212 -84 88 -105 113 -118 146 -8 19 -24
47 -37 62 -13 16 -23 35 -23 42 0 8 -15 47 -34 87 -39 83 -60 144 -62 173 -1
25 -15 77 -24 90 -3 6 -8 28 -9 50 -2 22 -7 45 -12 51 -4 6 -11 36 -15 68 -12
98 -62 135 -104 77 -18 -26 -20 -39 -15 -107 3 -42 9 -82 12 -88 8 -12 23 -85
28 -134 1 -18 10 -47 18 -65 28 -60 30 -77 10 -78 -10 0 -27 -3 -38 -5 -11 -2
-42 -7 -69 -9 -27 -3 -57 -12 -66 -20 -9 -8 -22 -15 -29 -15 -6 0 -15 -10 -20
-23 -6 -14 -18 -23 -34 -25 -31 -2 -177 -60 -198 -78 -8 -8 -21 -14 -28 -14
-13 0 -87 -30 -133 -54 l-27 -15 4 92 c10 180 23 308 36 353 5 17 10 59 10 95
0 35 5 84 11 109 5 25 11 88 13 142 2 53 6 109 9 125 4 15 8 57 11 93 2 36 6
79 9 96 3 17 6 69 7 115 1 46 7 95 12 109 4 14 11 54 14 90 3 36 9 68 14 71 5
3 11 34 14 70 2 35 8 81 14 101 5 20 6 39 3 42 -2 3 2 16 10 28 14 22 29 99
29 146 -1 12 13 78 29 146 17 68 30 130 30 137 1 8 9 32 19 54 11 21 17 48 15
58 -2 11 5 36 16 57 10 21 16 40 13 44 -3 3 0 12 7 20 6 9 12 32 12 53 0 33
10 60 64 180 8 17 11 38 8 47 -4 10 -1 16 7 16 7 0 10 3 6 6 -6 7 22 107 33
114 12 9 30 48 30 68 0 11 7 25 15 32 8 7 15 23 15 37 0 22 5 31 36 66 6 7 16
27 22 45 6 18 20 45 31 61 11 15 23 39 26 53 4 15 13 29 21 32 8 3 14 17 14
31 0 14 5 25 10 25 6 0 10 5 10 12 0 11 105 171 135 206 14 17 48 55 157 175
34 37 67 67 75 67 7 0 18 9 25 20 7 11 18 20 24 20 7 0 38 25 70 56 33 30 73
61 91 69 17 7 39 25 48 39 9 14 40 38 68 55 29 16 77 51 107 78 30 27 75 59
100 70 25 11 68 44 95 72 28 28 55 51 60 51 12 0 141 84 172 113 13 11 26 18
29 14 4 -3 12 -1 19 6 57 55 148 116 130 87 -14 -22 14 -8 29 15 9 14 22 24
29 22 6 -1 11 4 9 11 -1 8 3 12 10 10 7 -3 24 6 37 18 14 13 28 21 33 18 4 -3
8 -1 8 4 0 6 12 15 28 21 15 6 45 22 67 35 22 14 55 32 72 40 18 8 33 19 33
25 0 6 16 14 35 20 19 5 47 18 62 29 15 11 39 23 53 27 14 4 68 30 121 56 53
27 100 49 106 49 6 0 35 14 66 30 31 17 65 30 76 30 11 0 22 4 25 8 3 4 28 14
56 22 28 8 53 18 56 22 3 4 15 8 27 8 12 0 35 7 51 15 15 8 38 15 50 15 11 1
32 7 46 15 14 8 39 14 57 15 17 0 52 9 77 20 59 25 52 23 111 32 104 16 117
19 167 38 28 10 55 17 59 15 4 -3 20 0 36 6 15 6 57 13 93 16 36 3 83 9 105
15 22 6 49 12 60 15 37 8 139 16 245 19 58 1 121 6 140 10 19 5 62 9 95 10 33
0 85 4 115 8 176 23 370 23 423 1 30 -12 157 -1 168 15 9 14 6 112 -5 175 -19
100 -10 380 12 394 10 6 46 81 44 92 0 3 30 38 68 77 99 102 160 126 250 100
8 -3 28 -9 44 -13 52 -14 146 -123 198 -227 16 -32 33 -58 38 -58 6 0 10 -6
10 -14 0 -8 10 -27 23 -41 18 -22 27 -25 51 -19 53 13 70 64 50 153 -13 60
-15 161 -3 202 7 24 13 51 15 59 8 48 17 76 34 108 10 21 25 48 32 62 7 14 17
28 23 32 5 4 6 8 2 8 -5 0 -1 7 7 16 9 8 16 22 16 30 0 8 4 14 9 14 5 0 14 14
21 30 7 17 16 30 21 30 5 0 6 6 3 13 -2 7 9 26 26 42 16 16 30 32 30 36 0 21
126 139 170 160 28 13 50 27 50 30 0 4 26 17 58 29 31 13 62 27 68 31 6 5 24
8 40 8 47 -1 106 9 117 20 6 6 17 7 26 2 9 -5 25 -5 36 -1z m-7132 -7590 c-4
-16 -7 -17 -19 -5 -19 18 -18 25 5 25 14 0 18 -5 14 -20z m4164 -258 c-2 -9 2
-29 9 -43 15 -30 1 -65 -16 -39 -5 8 -10 29 -10 45 0 17 -7 40 -15 52 -14 20
-13 22 2 25 21 5 36 -15 30 -40z m-262 -13 c-10 -15 -25 -10 -19 6 4 8 10 12
15 9 5 -3 7 -10 4 -15z m-3467 -73 c9 -20 8 -25 -4 -30 -23 -9 -24 -8 -24 24
0 36 13 39 28 6z"/>
<path d="M8200 9703 c0 -6 8 -17 18 -24 16 -13 16 -13 2 6 -8 11 -16 22 -17
24 -2 2 -3 0 -3 -6z"/>
<path d="M4500 6554 c-30 -7 -68 -13 -85 -13 -16 0 -52 -4 -80 -10 -27 -6 -75
-15 -105 -22 -30 -6 -63 -15 -72 -20 -10 -5 -27 -9 -39 -9 -11 0 -46 -15 -77
-33 -31 -18 -64 -32 -72 -32 -8 1 -31 -6 -50 -15 -50 -24 -101 -41 -132 -44
-16 -1 -37 -12 -49 -25 -12 -12 -40 -32 -63 -43 -116 -55 -175 -98 -275 -195
-25 -23 -52 -45 -61 -48 -9 -3 -26 -23 -39 -45 -12 -22 -28 -43 -35 -47 -21
-13 -115 -140 -137 -185 -11 -24 -27 -55 -35 -70 -19 -36 -23 -129 -8 -193 15
-66 40 -125 53 -125 6 0 11 -6 11 -13 0 -34 330 -331 381 -342 15 -3 41 -17
60 -31 18 -13 40 -24 50 -24 9 0 48 -16 87 -35 153 -77 286 -106 472 -105 74
1 148 1 164 1 17 0 37 6 45 13 9 8 57 26 106 41 50 15 117 40 150 56 33 16 87
34 120 40 33 6 72 17 87 25 15 8 38 14 51 14 13 0 38 11 57 25 19 14 40 25 48
25 18 0 102 41 102 50 0 4 19 13 43 20 23 8 49 18 57 24 8 6 33 20 55 30 22
10 47 22 55 27 8 5 22 12 30 15 40 15 79 37 127 72 17 12 40 22 52 22 11 0 24
6 28 14 8 13 71 57 123 86 62 34 224 170 202 170 -3 0 8 11 26 23 17 13 42 37
54 53 12 16 27 32 32 36 18 12 48 112 47 153 -2 55 -4 65 -25 108 -10 21 -16
40 -13 44 8 7 -21 63 -32 63 -5 0 -20 17 -33 38 -29 42 -93 110 -126 132 -21
14 -51 30 -112 62 -14 7 -31 18 -38 25 -7 7 -22 13 -33 13 -11 0 -27 7 -35 15
-9 8 -28 15 -42 15 -15 0 -35 9 -45 20 -9 11 -26 20 -36 20 -11 0 -22 4 -25 9
-18 28 -321 108 -444 116 -41 3 -78 7 -83 11 -20 12 -384 11 -439 -2z"/>
<path d="M7354 6476 c-22 -6 -53 -20 -70 -31 -16 -10 -37 -20 -46 -22 -32 -5
-92 -62 -141 -132 -26 -39 -31 -54 -33 -123 -3 -69 -1 -80 17 -91 10 -6 19
-17 19 -23 0 -15 41 -50 68 -59 12 -3 22 -10 22 -15 0 -12 119 -59 175 -69 28
-4 66 -6 85 -4 126 14 159 20 174 32 9 7 16 11 16 7 0 -10 61 24 89 50 14 13
29 24 32 24 21 0 53 47 65 96 20 75 12 118 -37 189 -21 32 -39 66 -39 76 0 12
-23 30 -72 56 -39 20 -79 39 -87 40 -48 9 -202 8 -237 -1z"/>
<path d="M2260 6318 c-81 -12 -80 -12 -140 -42 -30 -15 -64 -30 -74 -32 -11
-2 -22 -7 -25 -12 -8 -13 -64 -83 -76 -96 -6 -6 -21 -33 -34 -61 -28 -58 -38
-176 -17 -197 6 -7 24 -30 40 -50 27 -36 43 -44 131 -65 88 -21 283 -3 335 31
19 13 57 33 85 45 82 36 132 107 140 201 3 44 0 56 -31 101 -19 28 -34 53 -34
55 0 13 -55 54 -80 59 -16 4 -32 15 -35 25 -11 36 -91 52 -185 38z"/>
<path d="M841 4784 c0 -11 3 -14 6 -6 3 7 2 16 -1 19 -3 4 -6 -2 -5 -13z"/>
<path d="M155 2640 c-13 -6 -15 -9 -5 -9 8 0 22 4 30 9 18 12 2 12 -25 0z"/>
<path d="M20 2619 c0 -13 -4 -18 -12 -13 -7 4 -8 3 -4 -4 11 -18 26 -14 26 7
0 12 8 21 23 24 19 4 18 4 -5 6 -22 1 -28 -3 -28 -20z"/>
<path d="M3980 2630 c8 -5 20 -10 25 -10 6 0 3 5 -5 10 -8 5 -19 10 -25 10 -5
0 -3 -5 5 -10z"/>
<path d="M4079 2627 c5 -5 26 -7 47 -5 l39 3 -47 5 c-26 3 -43 1 -39 -3z"/>
<path d="M4238 2623 c6 -2 18 -2 25 0 6 3 1 5 -13 5 -14 0 -19 -2 -12 -5z"/>
<path d="M4323 2623 c9 -2 23 -2 30 0 6 3 -1 5 -18 5 -16 0 -22 -2 -12 -5z"/>
</g>
</svg>
