<?xml version="1.0" standalone="no"?>
<!DOCTYPE svg PUBLIC "-//W3C//DTD SVG 20010904//EN"
 "http://www.w3.org/TR/2001/REC-SVG-20010904/DTD/svg10.dtd">
<svg version="1.0" xmlns="http://www.w3.org/2000/svg"
 width="420.000000pt" height="420.000000pt" viewBox="0 0 420.000000 420.000000"
 preserveAspectRatio="xMidYMid meet">
<metadata>
Created by potrace 1.14, written by Peter Selinger 2001-2017
</metadata>
<g transform="translate(0.000000,420.000000) scale(0.100000,-0.100000)"
fill="#000000" stroke="none">
<path d="M2579 4090 c-53 -57 -192 -282 -243 -394 -52 -114 -110 -315 -147
-503 -6 -35 -15 -63 -18 -63 -4 0 -49 9 -101 21 -118 25 -188 53 -284 113 -73
45 -166 137 -166 163 0 7 -4 13 -10 13 -10 0 -6 -33 12 -105 14 -54 52 -127
87 -167 l29 -34 -116 1 -117 0 -112 57 c-220 113 -459 252 -548 318 -49 37
-105 75 -123 85 -48 23 -76 4 -92 -66 -38 -159 92 -669 249 -976 l47 -91 -26
-34 c-14 -18 -40 -48 -58 -67 -20 -20 -34 -48 -38 -71 -4 -27 -11 -37 -20 -33
-25 9 -32 -6 -21 -48 7 -31 7 -51 -3 -78 -22 -62 -122 -218 -244 -381 -23 -30
-44 -59 -48 -65 -43 -57 -180 -215 -380 -437 l-88 -97 0 -576 0 -575 488 0
c268 1 507 5 532 10 27 5 49 5 54 -1 6 -5 628 -9 1568 -9 l1558 0 0 396 0 396
-62 62 c-62 61 -159 129 -309 218 -92 55 -258 178 -317 236 -24 23 -47 42 -52
42 -5 0 -10 10 -12 23 -2 14 -11 23 -27 25 -27 4 -63 41 -91 93 l-19 36 49 53
c53 58 52 70 -6 70 l-31 0 14 58 c23 97 35 130 64 173 15 23 25 48 22 55 -9
24 -83 37 -174 31 l-86 -6 48 90 c46 87 80 139 115 174 9 9 14 18 11 21 -7 8
-105 -24 -135 -43 l-23 -14 6 53 c4 29 8 58 10 64 4 14 -14 223 -21 244 -4 12
-7 12 -13 1 -5 -8 -12 33 -16 103 -7 102 -5 125 12 177 l20 59 -21 0 c-12 0
-39 -11 -61 -23 l-40 -23 -2 106 c-2 110 -10 146 -117 550 -50 189 -144 477
-177 544 -32 62 -68 96 -103 96 -23 0 -41 -12 -77 -50z m114 -5 c38 -36 49
-61 111 -246 142 -427 147 -524 41 -774 -26 -60 -49 -112 -52 -115 -2 -2 -6 6
-10 18 -8 31 -18 27 -34 -10 -15 -36 -19 -163 -6 -189 7 -14 4 -16 -17 -12
-15 3 -50 32 -82 67 -49 52 -100 100 -177 162 -10 8 -23 12 -29 8 -6 -4 -8 -3
-5 3 4 6 -9 20 -28 32 -19 11 -35 25 -35 31 0 6 -15 17 -32 25 -30 13 -31 14
-9 15 l25 0 -27 28 c-32 34 -57 91 -57 134 0 30 1 31 16 12 15 -18 15 -17 7
11 -4 17 -8 71 -7 120 1 83 5 99 46 200 69 168 97 222 162 320 78 118 134 185
155 185 9 0 28 -11 44 -25z m-1921 -561 c81 -51 171 -134 225 -207 42 -56 243
-365 243 -373 0 -3 -4 -2 -10 1 -20 12 -9 -14 26 -65 34 -49 35 -53 20 -75
-24 -37 -20 -50 9 -31 24 16 27 16 50 -1 13 -10 25 -24 25 -30 0 -7 7 -13 15
-13 21 0 20 -4 -26 -72 -70 -102 -102 -202 -77 -241 22 -32 30 -75 16 -79 -29
-10 -141 13 -195 41 -56 29 -140 105 -180 166 -11 17 -40 80 -66 140 -117 283
-197 601 -197 784 0 117 14 124 122 55z m955 -470 c-3 -3 -12 -4 -19 -1 -8 3
-5 6 6 6 11 1 17 -2 13 -5z m53 2 c0 -2 -7 -7 -16 -10 -8 -3 -12 -2 -9 4 6 10
25 14 25 6z m-258 -78 c-9 -9 -8 -16 6 -32 17 -20 17 -20 -9 0 -24 17 -25 20
-10 31 21 16 28 16 13 1z m937 -7 c10 -7 7 -9 -12 -8 -14 1 -23 5 -20 10 6 9
15 9 32 -2z m91 -73 c0 -6 -6 -5 -15 2 -8 7 -15 14 -15 16 0 2 7 1 15 -2 8 -4
15 -11 15 -16z m-995 -196 c-3 -3 -11 0 -18 7 -9 10 -8 11 6 5 10 -3 15 -9 12
-12z m852 -28 c-3 -3 -12 -4 -19 -1 -8 3 -5 6 6 6 11 1 17 -2 13 -5z m6 -169
c27 -19 57 -66 57 -89 0 -12 -42 -60 -106 -120 -169 -160 -211 -178 -253 -105
-14 25 -25 65 -28 101 l-6 59 36 -36 c39 -39 77 -46 116 -19 47 33 66 135 36
193 -8 16 -11 32 -7 36 11 11 133 -4 155 -20z m-202 -22 c-18 -8 -31 -16 -28
-19 2 -3 16 1 31 7 34 16 50 2 50 -44 0 -71 -48 -128 -101 -119 -27 4 -63 47
-63 75 0 11 11 30 26 43 14 13 22 24 18 24 -4 0 -15 -7 -25 -16 -16 -15 -17
-14 -12 5 3 11 14 23 24 26 10 4 19 10 19 15 0 5 7 7 15 4 8 -4 15 -1 15 6 0
6 5 8 10 5 6 -3 10 -2 10 3 0 6 10 7 22 4 21 -5 20 -7 -11 -19z m-1178 -165
c26 -32 52 -58 57 -58 6 0 10 -6 10 -14 0 -8 12 -23 26 -33 27 -20 27 -20 9
-56 -13 -28 -28 -41 -68 -57 l-52 -21 49 6 c57 6 81 24 97 72 8 24 16 33 26
29 8 -3 23 -6 34 -6 10 0 19 -6 19 -14 0 -24 18 -28 43 -11 21 13 26 14 36 1
15 -18 11 -26 -65 -141 -50 -74 -78 -145 -58 -145 4 0 26 17 47 38 22 20 38
33 35 27 -36 -89 -40 -95 -74 -101 -19 -3 -39 -15 -45 -26 -7 -13 -16 -17 -29
-13 -14 5 -23 -2 -35 -25 -29 -56 -46 -67 -90 -56 -59 14 -235 160 -235 195 0
10 -6 24 -14 31 -25 20 -23 53 6 105 15 29 30 75 34 108 6 47 9 55 20 46 12
-9 14 -2 14 42 0 51 12 59 23 14 3 -11 5 -3 6 18 1 44 11 66 55 120 l30 38 21
-28 c11 -15 42 -54 68 -85z m1720 97 c43 -7 84 -18 91 -24 7 -6 15 -8 19 -5 3
3 29 -6 57 -22 65 -35 139 -125 190 -229 63 -129 64 -122 -32 -127 -47 -2 -96
-11 -112 -20 l-28 -15 58 -39 c69 -46 82 -68 32 -53 -39 11 -152 10 -188 -1
-21 -7 -18 -8 20 -9 l45 -1 -56 -23 c-66 -28 -77 -35 -166 -112 -138 -120
-286 -272 -334 -343 -54 -81 -72 -102 -88 -102 -6 0 -11 -4 -11 -10 0 -22 -73
-89 -118 -108 -147 -63 -398 -46 -435 30 -8 16 -18 29 -23 28 -10 -2 -32 72
-33 113 -1 20 5 30 23 37 31 11 42 30 25 41 -22 14 -33 10 -19 -6 10 -13 7
-17 -21 -29 -37 -16 -71 -7 -154 41 -96 55 -115 92 -28 56 61 -26 117 -36 154
-28 36 8 55 44 111 199 l39 109 -20 21 c-36 38 -117 61 -213 61 -49 0 -88 2
-88 5 0 3 13 14 29 25 17 10 49 46 73 78 83 114 105 134 170 156 97 33 232 23
270 -20 16 -19 17 -19 62 3 44 21 45 22 28 41 -17 20 -17 20 10 3 54 -35 132
9 308 174 109 103 137 117 230 119 25 0 80 -6 123 -14z m-1202 -62 c13 -16 12
-17 -3 -4 -10 7 -18 15 -18 17 0 8 8 3 21 -13z m-58 0 c-7 -2 -13 -9 -13 -14
0 -6 8 -6 19 1 14 7 28 7 48 -2 37 -17 43 -26 43 -71 0 -53 -15 -77 -49 -77
-57 0 -101 63 -81 114 5 12 11 29 14 39 3 9 11 17 18 16 10 0 10 -2 1 -6z
m127 -29 c7 -20 18 -78 25 -128 l13 -91 -25 -27 c-24 -25 -27 -26 -67 -14 -65
20 -139 69 -147 97 -12 43 -10 124 5 144 12 16 14 13 19 -31 4 -38 12 -54 36
-76 41 -36 84 -37 107 -3 17 26 22 104 9 143 -3 13 -2 22 4 22 5 0 15 -16 21
-36z m-154 -225 c38 -23 83 -46 101 -51 l33 -9 -17 -30 c-32 -55 -105 -129
-145 -150 -22 -11 -37 -23 -34 -26 3 -4 -2 -12 -12 -18 -20 -15 -131 -75 -137
-75 -13 0 12 143 32 183 20 39 9 45 -28 18 -17 -13 -33 -20 -36 -18 -2 3 18
41 45 84 28 43 56 90 63 106 18 39 53 35 135 -14z m-845 -292 c-10 -9 -11 -8
-5 6 3 10 9 15 12 12 3 -3 0 -11 -7 -18z m609 -45 c0 -31 9 -67 25 -100 14
-29 25 -54 25 -55 0 -2 -24 -2 -52 -1 -61 5 -56 1 24 -15 55 -12 74 -28 106
-92 1 -4 -10 -9 -26 -12 -16 -3 -51 -27 -78 -52 -27 -26 -34 -35 -15 -20 19
14 55 37 82 50 l48 25 29 -24 c40 -35 173 -106 197 -106 11 0 -18 -21 -65 -46
-100 -55 -198 -111 -296 -171 -40 -23 -79 -43 -88 -43 -8 0 -20 -9 -26 -20 -8
-15 -17 -19 -35 -14 -22 5 -27 1 -40 -30 -13 -31 -20 -36 -49 -36 -29 0 -37
-6 -65 -51 -17 -28 -34 -50 -36 -47 -15 15 91 424 153 593 44 119 129 292 149
304 29 17 33 13 33 -37z m1571 -135 c23 -15 36 -34 41 -57 4 -19 10 -48 13
-65 l6 -30 -20 35 c-24 42 -26 37 -6 -21 11 -31 13 -51 6 -69 -5 -14 -12 -59
-16 -100 -12 -133 -50 -287 -107 -425 -16 -38 -26 -75 -24 -82 5 -13 -28 -25
-124 -43 -57 -11 -130 -13 -130 -5 0 4 7 20 16 37 9 16 11 27 5 23 -15 -9 -46
-71 -62 -124 -12 -40 -14 -42 -27 -25 -38 51 -65 122 -71 189 l-7 70 -22 -40
-23 -40 4 57 c4 65 -7 70 -16 7 -6 -45 1 -109 13 -109 4 0 13 19 20 43 l14 42
6 -55 c4 -30 6 -57 4 -59 -2 -2 -23 7 -48 19 -87 42 -189 184 -202 283 l-6 43
43 13 c54 16 149 69 156 87 2 7 11 10 18 8 8 -3 16 4 20 16 11 35 122 188 187
260 91 99 162 137 259 139 32 1 56 -6 80 -22z m-2407 -183 c3 -8 2 -12 -4 -9
-6 3 -10 10 -10 16 0 14 7 11 14 -7z"/>
<path d="M2632 3723 c-22 -56 -32 -109 -31 -163 2 -53 2 -53 10 20 4 41 15 95
24 119 17 48 14 69 -3 24z"/>
<path d="M2662 3625 c-7 -14 -12 -31 -12 -38 1 -7 7 3 16 22 17 39 13 54 -4
16z"/>
<path d="M2576 3598 c-3 -13 -6 -51 -6 -85 0 -35 -3 -63 -7 -63 -5 0 -17 17
-28 37 -11 20 -25 38 -32 41 -7 2 -2 -16 12 -40 13 -24 36 -76 51 -116 14 -40
28 -71 31 -69 2 3 -1 44 -8 92 -6 50 -8 118 -5 157 7 68 4 88 -8 46z"/>
<path d="M2474 3330 c1 -105 4 -120 31 -175 16 -33 31 -64 33 -69 3 -5 -1 -5
-8 -1 -9 6 -11 4 -6 -4 5 -7 11 -10 14 -7 3 3 14 -1 24 -11 26 -23 22 -7 -8
32 -44 58 -67 132 -75 245 l-7 105 2 -115z"/>
<path d="M2505 3065 c9 -16 29 -42 43 -57 l26 -28 -30 -1 c-25 0 -26 -2 -9 -9
30 -13 55 -12 55 3 -1 6 -24 37 -52 67 -32 34 -45 44 -33 25z"/>
<path d="M836 3088 c13 -43 23 -68 28 -68 3 0 -2 20 -11 45 -15 45 -31 65 -17
23z"/>
<path d="M885 2980 c9 -16 18 -30 21 -30 2 0 -2 14 -11 30 -9 17 -18 30 -21
30 -2 0 2 -13 11 -30z"/>
<path d="M846 2985 c4 -11 27 -49 51 -83 24 -35 40 -62 36 -60 -4 2 -29 14
-55 28 -26 13 -51 21 -55 17 -14 -14 37 -97 102 -166 72 -76 153 -134 223
-161 43 -16 44 -17 18 -24 -37 -9 -33 -26 7 -25 27 2 29 2 7 7 -24 4 -23 5 10
17 l35 12 -40 13 c-70 22 -147 72 -222 143 -67 64 -133 148 -133 169 0 10 58
-19 146 -73 35 -21 67 -39 70 -39 3 0 -22 25 -54 55 -33 30 -77 81 -98 112
-48 72 -57 83 -48 58z"/>
<path d="M2835 2363 c18 -30 45 -52 45 -35 0 10 -12 25 -39 47 l-24 20 18 -32z"/>
<path d="M1909 1948 c-13 -18 -43 -57 -67 -85 -25 -29 -40 -53 -35 -53 6 0 32
28 59 62 68 86 77 99 71 104 -3 3 -15 -10 -28 -28z"/>
<path d="M2395 1886 c-35 -15 -95 -64 -95 -77 0 -6 5 -7 10 -4 13 8 13 -1 0
-26 -6 -11 -22 -20 -38 -20 -23 -2 -24 -2 -4 -6 12 -2 22 -7 22 -9 0 -8 -60
-94 -94 -136 -20 -24 -40 -38 -56 -39 -21 0 -22 -2 -7 -8 18 -7 3 -22 -98 -97
-16 -12 -13 -12 13 1 18 9 50 32 71 51 44 39 51 40 89 18 26 -16 26 -15 -3 10
l-29 25 25 28 c29 31 107 144 128 185 18 34 71 93 91 100 8 3 13 8 10 11 -3 3
-18 0 -35 -7z"/>
<path d="M2069 1873 c-13 -16 -12 -17 4 -4 9 7 17 15 17 17 0 8 -8 3 -21 -13z"/>
<path d="M2019 1833 l-24 -28 28 24 c25 23 32 31 24 31 -2 0 -14 -12 -28 -27z"/>
<path d="M2170 1744 c-57 -19 -101 -37 -97 -40 2 -2 24 3 48 12 24 8 62 19 84
24 34 7 36 8 10 8 -16 0 -37 -2 -45 -4z"/>
<path d="M1935 1540 c-4 -6 -11 -7 -17 -4 -7 4 -8 2 -4 -5 6 -9 11 -9 22 0 14
11 18 19 10 19 -3 0 -8 -5 -11 -10z"/>
<path d="M1802 1430 c-40 -5 -76 -11 -80 -15 -7 -7 123 3 198 15 l45 8 -45 -1
c-25 0 -78 -3 -118 -7z"/>
<path d="M1331 1993 c-16 -58 -12 -75 5 -19 9 26 13 50 10 53 -2 3 -9 -12 -15
-34z"/>
<path d="M1436 1353 c-6 -14 -5 -15 5 -6 7 7 10 15 7 18 -3 3 -9 -2 -12 -12z"/>
<path d="M2214 1065 c-16 -12 -16 -14 -3 -15 9 0 22 7 29 15 16 19 0 19 -26 0z"/>
<path d="M2205 1020 l-40 -19 30 0 c20 -1 34 6 43 19 7 11 11 20 10 19 -2 0
-21 -9 -43 -19z"/>
</g>
</svg>
