<svg xmlns:svg="http://www.w3.org/2000/svg" xmlns="http://www.w3.org/2000/svg" version="1.1" width="200" height="200" fill="none" stroke="black"><path style="fill:#fff;stroke-width:1" d="M 94.291498,199.67645 C 76.030725,198.30712 59.897579,192.97406 45.506073,183.54968 C 21.433911,167.78585 5.5428219,142.77959 1.1076599,113.68421 C 0.22864777,107.91775 0.12105668,93.499717 0.91430769,87.773279 C 4.1922753,64.10981 14.369045,43.979506 31.210773,27.844927 C 38.871834,20.505543 46.522081,15.18619 56.234818,10.445271 C 65.682474,5.8337409 74.884296,2.8966923 84.777328,1.3350364 C 91.261028,0.3115587 104.39851,0.087392713 111.24258,0.88345749 C 130.10849,3.0778381 147.94207,10.558636 162.71255,22.473984 C 167.5599,26.38434 175.08989,34.033312 178.77026,38.785425 C 190.47702,53.901251 197.52455,71.762457 199.37747,91.012146 C 199.96328,97.098045 199.66094,108.41842 198.75034,114.49393 C 192.23105,157.99037 158.18489,192.09494 114.73684,198.65158 C 109.48685,199.44386 98.520356,199.99357 94.291498,199.67645 L 94.291498,199.67645 z M 107.27786,176.81161 C 116.47285,175.90645 124.93449,173.53815 133.30139,169.52794 C 160.22921,156.62159 177.08502,129.87462 177.08502,100.0516 C 177.08502,73.795263 164.0601,49.76953 141.95771,35.255883 C 134.46962,30.338785 124.69351,26.337235 115.35734,24.367838 C 108.69081,22.961575 96.557684,22.589603 89.51381,23.575534 C 63.989113,27.148219 41.868077,43.150211 30.709846,66.11336 C 10.266713,108.18445 31.365494,158.42026 75.668016,173.15792 C 86.209239,176.66454 96.586652,177.86405 107.27786,176.81161 L 107.27786,176.81161 z"/><path style="fill:#fff;stroke-width:1" d="M 91.862348,153.18236 C 75.201182,150.39987 61.574587,140.97019 53.262968,126.47135 C 49.958822,120.70757 47.859142,114.51525 46.697304,107.10803 C 46.07383,103.13315 46.424352,93.147255 47.333348,88.987854 C 51.355514,70.583121 64.755336,55.316482 82.191401,49.273494 C 93.580976,45.326097 106.34136,45.326239 117.72763,49.273899 C 133.69911,54.811271 146.22813,67.776053 151.3341,84.049239 C 151.91412,85.897781 152.38866,87.583 152.38866,87.794178 C 152.38866,88.027381 147.78723,88.178138 140.66985,88.178138 L 128.95104,88.178138 L 127.50134,85.419372 C 123.55916,77.917385 116.2408,72.114798 107.90917,69.88513 C 103.87051,68.80432 96.720571,68.720462 92.672065,69.706413 C 88.864753,70.633623 83.778773,73.147992 80.679899,75.635004 C 75.83981,79.519425 72.539789,84.207449 70.499939,90.096676 C 68.951911,94.565939 68.530668,101.57703 69.528409,106.26644 C 72.651324,120.94422 85.242142,131.11751 100.24609,131.08609 C 111.78214,131.06193 122.62191,124.37277 127.69527,114.14736 L 128.92942,111.65992 L 140.69121,111.65992 L 152.45301,111.65992 L 152.17897,112.97571 C 151.65485,115.49221 149.84318,120.38423 148.24324,123.60324 C 140.74972,138.67991 127.29124,149.12667 110.68826,152.7542 C 106.57971,153.65187 96.100737,153.89019 91.862348,153.18236 L 91.862348,153.18236 z"/></svg>
