<svg xmlns="http://www.w3.org/2000/svg" width="1600" height="1600" version="1" viewBox="0 0 1200 1200"><path d="M857.5 71.5c-5.5.7-12.2 1.5-14.9 1.9-6.7.8-19.1 5.7-26.2 10.3-3.3 2.1-7.6 4.7-9.8 5.8-2.1 1.1-4.6 3-5.5 4.4-.9 1.3-4.4 5.2-7.8 8.7-3.5 3.4-6.3 6.9-6.3 7.7 0 .8-.6 2-1.4 2.6-.8.7-2.4 3.2-3.6 5.7-1.1 2.5-2.9 5.4-3.8 6.4-.9 1.1-3 4.5-4.6 7.7-1.5 3.2-4.3 8.7-6 12.3-1.8 3.6-4.3 11.2-5.6 17-1.3 5.8-2.5 10.7-2.6 10.8-.5.7-7.4-6.1-7.9-7.7-.3-.9-1.7-2.2-3.2-2.8-1.6-.7-4.5-2.7-6.6-4.4-3.2-2.8-4.9-3.4-12.9-4.5-12.9-1.8-24 .8-29.4 6.7-1.1 1.2-3.8 3.5-6.1 5.1-2.4 1.6-4.3 3.4-4.3 4 0 .7-1.8 3.3-3.9 5.8-5.4 6.4-8.4 12.2-10.8 20.5-2.8 9.5-4.7 26.1-3.7 32.1.4 2.7.8 6.5.9 8.4.1 1.9.7 5.2 1.4 7.3.7 2.1 1.1 3.9.9 4-2 1.3-7.3 2.5-8.2 2-1.5-1-32.8-.4-45.1.7-5.5.6-14.4 1.2-19.7 1.4-5.3.3-10.5.9-11.5 1.4-1 .6-5.6 1-10.3 1.1-4.7 0-10.7.3-13.5.6-2.7.2-7.8.7-11.1 1-13 1.1-55.6 10-64.5 13.4-1.5.5-3.6.7-4.8.4-1.1-.3-3.2.2-4.6 1.1-1.3.9-3.8 1.6-5.4 1.6-1.6 0-3.3.4-3.6 1-.3.5-1.7 1-3 1s-3.6.6-5.2 1.4c-1.5.8-8.2 3.1-14.8 5.1-6.6 2-13.3 4.2-15 5-1.6.7-4.6 1.8-6.5 2.5-12.7 4.4-21 7.8-25 10.2-.8.5-4.4 2.2-8 3.9-3.6 1.6-8.2 3.9-10.2 4.9-2 1.1-4.2 2-4.8 2-.6 0-2.1.9-3.3 2.1-2.4 2.2-7.7 5.2-11.6 6.4-1.3.4-6 3.3-10.5 6.4-4.4 3.1-9.6 6.3-11.5 7.1-1.8.7-4.6 2.4-6.1 3.6-1.5 1.3-3.8 2.8-5.1 3.4-2.2.9-11.6 6.8-23 14.4-2.4 1.6-8.4 5.6-13.4 8.9-4.9 3.3-10.9 7.6-13.2 9.6-5.9 5.1-9.2 7.5-15 10.9-2.8 1.7-9.7 6.6-15.3 11.1-5.6 4.5-10.7 8.1-11.3 8.1-1.1 0-11.7 8.4-18.7 14.9-2.5 2.3-5.2 4.3-6 4.6-.8.3-2.8 2.3-4.4 4.5-1.7 2.2-3.3 4-3.7 4-1 0-7.5 6.9-12.7 13.5-2.2 2.7-5.8 6.3-8 8-2.2 1.6-6.1 6.1-8.8 10-2.6 3.8-6 8.8-7.6 11-5.5 7.6-15.8 25.8-20.8 36.5-.4.8-2.1 4.2-3.7 7.5-6.6 12.9-10.3 21.2-10.3 22.9 0 1-.9 2.9-2 4.3s-2 3.2-2 3.9c0 .7-.4 1.5-.8 1.8-1 .6-9-1.7-12.3-3.5-3.8-2-22-2.3-28.5-.4-6.1 1.8-12.3 5.8-15.7 10.2-1.2 1.5-2.7 3.2-3.4 3.6-.7.4-2 2.2-2.8 4-.8 1.8-2.8 5-4.5 7.2-1.6 2.2-2.9 4.8-3 5.8 0 1-.6 2.8-1.4 4-1.3 2-5.2 13.5-7.6 22.7-.8 3.3-2.8 23.2-2.9 29.5-.2 18.9.1 28.3 1.3 35 .8 4.4 1.7 11.8 2.1 16.5.6 8.9 2.8 18.5 4.5 19.5.6.3 1 2.3 1 4.3 0 2.1.9 5.4 2 7.4 1 2 2.9 7.3 4 11.9 1.2 4.5 3.7 11.3 5.6 15 1.9 3.8 3.4 7.5 3.4 8.4 0 .8 1.1 3.3 2.5 5.5s2.5 4.2 2.5 4.6c0 .3.8 1.8 1.9 3.2 1 1.5 2.2 3.8 2.6 5.2.4 1.4 1.5 3.5 2.5 4.7 1.4 1.8 1.6 4.2 1.4 16.2-.2 7.8-.8 15-1.4 16.1-.6 1-.9 6.1-.8 11.2.1 5.1 0 17.3-.1 27-.1 10.1.2 18.5.7 19.5.8 1.3-.2 3.1-5.2 8.8-3.3 4-6.5 8-7.1 8.9-1.4 2.4-23.2 3.5-24.1 1.2-.4-1.1-2.2-1.4-6.9-1.4-5.3.1-6.4.4-6.8 2-.5 1.7-1.5 1.9-11 1.7-5.7-.1-10.9.1-11.5.5-.7.4-1.2 3.3-1.2 7.2 0 6 .2 6.4 2.3 6.4 14.6.3 26.6.2 27.3-.3 1.4-.8 22.5-1.8 23.6-1.1.5.4-.1 1.8-1.4 3.3-1.3 1.4-3.1 3.6-3.9 4.8-.8 1.1-3.5 4.8-6 8.1-2.6 3.3-5 6.9-5.3 8-.4 1.1-1.7 2.7-3 3.5-2.8 1.9-6.6 8.8-6.6 12 0 2.5 8.6 11.7 10.9 11.7 1 0 4.7 2.1 8 4.7.2.1-.2.9-.9 1.8-2 2.4.1 31.5 2.7 38.5.3.8.7 4.6 1 8.4.2 3.8.8 7.7 1.3 8.7.6 1 1 3.2 1 4.9 0 4.6 1.6 7 4.8 7 2.4 0 3.1.9 6 7.1 1.9 3.9 3.7 9.3 4.1 12 .4 2.6 1.2 5.4 1.8 6.1.6.7 1.6 3.8 2.3 6.8.7 3 2.1 7.3 3.1 9.5s1.9 5.1 1.9 6.5c0 1.4.9 4.2 2 6.3 1.1 2 2 4.6 2 5.7 0 1.1.9 3.7 2 5.7 1.1 2.1 2 5.3 2 7.1 0 1.9.7 4.7 1.5 6.3.8 1.6 2.2 4.2 3 5.8.8 1.6 1.5 4.1 1.5 5.5 0 3.3 7.1 18.6 8.7 18.6 1.6 0 5.2 1.7 8.8 4 1.7 1.1 3.7 2.2 4.5 2.6.8.3 4 1.8 7 3.4 3 1.6 8 3.8 11 5 3 1.2 6.6 2.9 8 3.8 3.7 2.4 15.7 5.1 36.5 8 9.9 1.4 30.5.7 70.5-2.3 4.1-.3 9.5-.9 12-1.5 2.5-.5 7-1.3 10-1.8s7.1-1.5 9-2.2c3.6-1.3 6.1-2.2 7-2.5.3-.1 3-.5 6-.9 8.5-1.2 20.8-4.4 24.8-6.5 6-3 11.2-5.1 13-5.2.9 0 4.4-1.5 7.7-3.2 4.3-2.3 6.5-4.2 7.7-6.7.9-1.9 2.1-4 2.7-4.7.6-.6 1.3-2.4 1.7-3.9.4-1.5 1.3-3.9 2-5.3.8-1.4 1.4-3.5 1.4-4.5 0-1.1 1.1-3.8 2.4-6 1.3-2.3 2.9-6.7 3.5-9.9.6-3.2 1.3-6.3 1.7-6.8.3-.5 1-4.2 1.4-8.2 1.1-8.8 2.6-17.3 4.7-25.2.8-3.3 1.9-9.8 2.3-14.5.9-8.2 3.7-17 8.1-25.3 1.1-2 1.8-3.7 1.5-3.7-.2 0 .9-3.7 2.5-8.3 1.6-4.5 2.9-8.9 2.9-9.8 0-.9.9-2.6 2-3.9 1.1-1.2 2.2-3.9 2.6-5.9.3-2 1.7-5.3 3-7.4 1.3-2 2.8-5.4 3.2-7.5.8-3.7.8-3.7 5.5-3.4 3.8.2 5.4-.2 8.5-2.4 5.9-4.4 6.2-5.1 6.2-14.1V936l7.4.5c7.2.5 7.4.5 10.5-2.5 6-6.1 3.9-15.2-6.7-28.9l-6.6-8.4 10 .7c5.4.4 13.7 1 18.4 1.2 4.7.2 12.1.6 16.5.9 4.4.2 12.4.5 17.8.5 6.2 0 9.7.4 9.7 1.1 0 .6-1.3 2.3-2.9 3.7-10 9.4-14.6 14.2-17.2 18.2-2.6 3.9-3 5.2-2.6 9.4.4 4.5.9 5.4 5.8 9.8 3 2.7 6.4 5.3 7.7 5.8 2.9 1.2 2.3 4-1.9 8.8-1.6 1.8-3 4-3.1 5-.2 3.2-.4 3.7-1.1 4.9-1.4 2.2 1.4 10.7 4.6 14 2.9 3 3.6 3.3 9.4 3.3 7.9 0 8.6 1 11.2 15.1 1.1 5.7 2.7 13.8 3.6 17.9 2.9 13 3.3 15.3 3.9 23 .4 4.1 1.1 9.3 1.6 11.4.5 2.2.7 4.3.5 4.7-.3.3.2 4.8.9 10 .8 5.2 1.4 11.4 1.5 13.9.1 6.6.9 15.2 2.6 26.5.8 5.5 1.8 11.8 2.1 14 .7 4.6 4.3 13.5 5.4 13.5.5 0 1.8 1.9 2.9 4.3 1.7 3.5 3.1 4.8 7.4 6.7 2.8 1.3 7 3.5 9.2 5 6.4 4.3 11.3 6.2 30.9 12 3.7 1.1 7.1 1.8 7.5 1.6.3-.2 4.7 0 9.6.5 5 .5 11.7 1.2 15 1.4 3.3.3 7.7.7 9.9 1 4 .6 14.3 1.3 25.3 1.9 3.4.2 8.5-.1 11.5-.6 3.6-.6 8.4-.5 14.8.4 5.2.7 10.1 1.2 10.9 1.1.8-.1 9.3-.4 19-.8 9.6-.3 18-1 18.6-1.5.5-.4 3.6-1.1 6.9-1.4 3.2-.3 6.4-1 7.1-1.6.7-.6 6.9-1.2 13.8-1.4 6.9-.2 13.1-.8 13.8-1.2 1.8-1.1 13.1-3.3 31.7-6.3 6.9-1.1 11.9-2.4 13-3.4 1-1 2.3-1.7 2.8-1.7.6 0 2.5-1.5 4.2-3.3 3.3-3.4 8.1-15 8.2-19.5 0-1.2.7-3.3 1.5-4.6.8-1.2 1.8-4.5 2.1-7.2.4-2.7 1.1-5.7 1.6-6.8 1.8-3.4 4.1-21 5.8-43.6.5-7.4 1.4-15.5 1.9-18s1.2-7.3 1.5-10.7c.3-3.4 1.5-9.7 2.6-14 1-4.3 2.1-9.6 2.3-11.8.4-3.8.6-4 4.3-4.6 2.1-.4 5.4-.4 7.4-.2 2.4.4 5.2-.2 8.3-1.6 2.5-1.2 4.9-2.1 5.3-2.1.4 0 2.5-.8 4.6-1.8 2.8-1.3 4-2.6 4.8-5.2 1.3-4.6 1.3-8.4-.2-13.1-.6-2.2-.9-4.2-.5-4.5.3-.3 2.5-.8 4.9-1.1 2.4-.2 5.2-.8 6.3-1.3 13.1-5.4 16.5-8.8 16.6-16.7.2-4.8-2.4-11.6-5.8-15.5-1.1-1.2-1.2-2.1-.4-3.7 1.6-2.8 1.4-11.6-.4-15.7-1.3-3.2-1.3-3.5.5-4.2 1-.4 6.7-.4 12.7 0 18.2 1.2 52 1.9 118.3 2.4 34.9.2 64 .4 64.5.4 19.9-.9 29.5-.7 30.6.6 1.4 1.8 5 1.8 7.3.1 1.4-1 3.4-1.1 8.4-.5 3.7.5 10.1 1.1 14.2 1.3 9 .4 31.2 2.1 39.3 3l5.7.7v-6.1c0-5.8-.1-6.1-2.4-6.1-1.4 0-3.7-.5-5.3-1.1-3.1-1.1-3.5-1.2-32.8-3.4-11.5-.9-21.4-1.7-21.9-1.9-1.2-.3-.8-22.4.5-32.1.9-6.8 2.3-33.7 2.1-38.3-.2-3.5-.2-4.2.2-14.7.3-5.5.7-18.3.9-28.5.2-10.2.9-27.7 1.4-39 1-21.4.9-32.4-.3-45-.8-8.7-.9-21.6-.1-38 .3-6.3.1-16-.5-21.5s-1.1-12-1.3-14.5c-.1-2.5-.9-6.2-1.8-8.2-1-2.2-1.9-7.6-2.2-13.4-.3-5.2-.9-10.4-1.5-11.4-.5-.9-.6-2-.2-2.4.3-.4.1-1-.6-1.5-.7-.4-1.4-4.1-1.8-8.7-.3-4.3-.9-8.8-1.4-9.9-.5-1.1-1.6-5.4-2.5-9.5-1-4.1-2.3-9.3-3.1-11.5-.7-2.2-1.6-5.8-2-8-.4-2.2-1-4.5-1.4-5-.4-.6-2-4.2-3.5-8-1.6-3.9-3.5-8-4.3-9.2-.8-1.3-1.2-2.9-.9-3.7.3-.8-.3-3-1.4-5-1-2-1.9-4.2-1.9-5 0-.7-.7-1.9-1.5-2.6-.8-.7-1.5-2.1-1.5-3.2s-2-5.1-4.5-8.8c-2.5-3.7-4.5-7.5-4.5-8.3 0-.9-.9-2.1-1.9-2.7-1.1-.5-2.2-2.3-2.6-3.9-.3-1.6-1.7-4.2-3.1-5.8-1.4-1.5-3.5-4.6-4.6-6.8-1.1-2.2-3.4-5.9-4.9-8.2-1.6-2.3-2.9-4.5-2.9-5 0-.4-2.3-3.2-5-6.2-2.8-3-5-6.1-5-6.8 0-.7-.7-1.6-1.5-1.9-1.4-.6-4.5-5.8-4.5-7.7 0-.5-2.2-3.4-5-6.4-2.7-3-5-6-5-6.7 0-.7-2.3-3.4-5.1-6.1-2.9-2.7-7-7.4-9.2-10.5-2.3-3-6-7.5-8.3-10-2.3-2.5-4.9-6-5.8-7.7-1.8-3.5-3.4-5.5-11.1-13.6-2.8-2.8-6.7-7.7-8.8-10.8-2-3.1-9.8-11.4-17.2-18.5-7.4-7.1-13.5-13.5-13.5-14.4 0-.8-1.5-2.4-3.3-3.4l-3.2-1.9 3.5-.9c1.9-.6 4.2-1.4 5-1.9.8-.5 2.9-1.5 4.6-2.3 6.4-2.9 17.5-17.4 19.2-25.1.5-2.8 1.8-7 2.7-9.4 2.2-6 1.2-18.5-2.1-25.8-1.3-2.8-2.4-5.7-2.4-6.2 0-1.7-4.4-8.1-5.5-8.1-.9-.1-5-5.1-8.5-10.6-.8-1.3-3.6-2.9-6.7-3.9-2.8-.9-5.7-2.2-6.3-3-2-2.4-10.3-3.6-23.7-3.6-7.3.1-13.3-.1-13.3-.3 0-.7 4.8-9.7 5.9-11 .5-.6 1.2-3.2 1.5-5.8.4-2.6 1.1-5 1.7-5.3.5-.4.9-1.4.9-2.4 0-.9 1.1-3.9 2.4-6.7 4.4-9.2 7-27.8 5.7-40.3-2.6-23.4-2.4-21.9-5.5-33.4-3-11.3-4.5-14.9-8.4-19.5-1.5-1.7-4.7-5.7-7.2-8.7-2.4-3-4.7-5.5-5.1-5.5-.4 0-2.2-1.2-3.9-2.6-4.1-3.5-9.9-6.4-12.7-6.4-1.2 0-2.4-.4-2.7-.9-.3-.5-2.3-1.2-4.3-1.5-2.1-.4-5.4-1.3-7.3-2-14.5-5.4-20.8-6.2-36.5-4.1zm12.2 13.7c.8.6 1.9.5 3.4-.2 1.5-.8 2.8-.9 4.3-.2 5.3 2.4 7.8 3.2 8.7 2.6.6-.3 1.5-.2 2.2.3.7.5 3.2 1.5 5.7 2.2 2.5.7 6.8 2.4 9.5 3.7 2.8 1.3 5.4 2.4 5.9 2.4.4 0 4.8 3.5 9.7 7.7 10.1 8.7 9.9 8.4 17 35.3.6 2.5 1.2 12.1 1.3 21.5 0 14.1-.2 17.7-1.7 20.9-.9 2.1-1.7 4.9-1.7 6.1 0 1.2-.9 3.3-1.9 4.7-1.1 1.3-2.4 4.4-3.1 6.8-2.3 8.5-5.3 16.5-7.6 20-3.7 5.6-6.3 19.9-4.3 23.6 1.8 3.5 3.6 3.7 12 .9 6-2 8.2-2.4 9.8-1.6 1.1.6 2.9.7 4.1.3 1.1-.4 6.2-.4 11.2 0 10.4.9 14.3 2.8 23.9 11.6 8.7 8.1 9.4 10.1 9.3 26.8v14.1l-3.7 5.6c-2.1 3.1-5.4 6.9-7.5 8.4-2 1.5-4 3.1-4.3 3.5-.7 1-9.2 3.4-14.9 4.3-6 .9-8.6 2.7-9.4 6.6-.6 2.9-.1 3.8 5.2 9.3 3.3 3.4 6.6 7.5 7.5 9.1.8 1.7 8.2 9.6 16.4 17.6 8.2 8 18.2 18.7 22.3 23.7 4 5.1 7.7 9.2 8.2 9.2.4 0 .8 1 .8 2.2 0 1.3 1.3 3.6 2.9 5.3 10.9 11.2 16.1 17.2 16.1 18.3 0 .6 1.2 2.2 2.6 3.5 1.4 1.2 4.4 4.8 6.6 7.9 2.3 3.2 4.4 5.8 4.7 5.8.3 0 1.7 1.8 3.1 4 1.3 2.2 2.8 4 3.2 4 .4 0 .8.5.8 1.1 0 1.5 5.3 9 9.4 13.3 4.2 4.6 13.8 18.6 14 20.6.1 1.6 2.1 4.8 7.8 12.7 2.1 2.9 3.8 5.9 3.8 6.7 0 .8 2.5 5.1 5.5 9.6s5.7 9.2 6.1 10.3c.3 1.2 1.4 3.5 2.3 5.2 1 1.6 2.5 5.5 3.5 8.5s3.3 9.1 5.2 13.5c1.8 4.4 3.5 9.3 3.7 11 .3 1.6 1.5 6.4 2.7 10.5 5.1 17.6 6.9 26.4 7.4 36.6.2 3.9.9 8 1.4 9 .6 1.1 1.7 6.1 2.6 11.3.9 5.1 2.1 10.1 2.6 11.2 1.4 2.5 2.3 21.7 2.6 55.9.1 15.7.4 38.8.7 51.5.3 13.7.1 23.7-.5 24.8-.5 1-1.1 13.3-1.4 27.5-1 61.5-1.5 73.8-3.4 98.7-.8 9.7-1.6 14.3-2.6 15.1-.8.6-4.5.9-9.1.8-4.3-.2-10.7-.5-14.1-.6-3.5-.2-6.6 0-6.8.4-.2.3-1.9.5-3.7.3-4.8-.6-23.1-.8-49.2-.6-56.6.5-123.9-.9-130-2.6-1.1-.3-6.7-.9-12.4-1.2l-10.3-.6-1.8-4.4c-2.9-7.4-8.9-10.6-7.6-4 .8 4.4-.7 3.5-3.2-1.9-3.5-7.3-12.5-16.1-21.9-21.4-2.9-1.7-5.9-3.9-6.7-4.9-.7-1-2.8-2.4-4.7-3-1.9-.6-6.1-2.1-9.4-3.4-3.3-1.3-7.9-2.8-10.2-3.4-2.4-.7-4.3-1.6-4.3-2.2 0-1 4.4-7.2 9.5-13.4 2.4-2.9 6.3-8 11.3-14.8 1.3-1.8 2.6-4.5 2.9-6 .3-1.5 1.7-3.6 3-4.7 2.2-1.7 7.2-11.8 7.3-14.6 0-.6.7-1.7 1.5-2.4 2-1.6 7.5-12.8 7.5-15.2 0-3.2-1.8-5.6-4.8-6.3-4.2-.9-8 .9-8.8 4.2-.4 1.5-1.3 3.5-2 4.4-.8.9-3 5.4-5 10s-4.6 9.5-5.8 10.9c-1.2 1.4-3.1 4.5-4.1 7-1 2.5-2.6 5.4-3.6 6.5-.9 1.1-2.9 4-4.5 6.4-1.6 2.4-4 5.6-5.4 7.1-1.4 1.4-4.3 4.8-6.5 7.5-2.2 2.6-5.3 6-6.9 7.4-1.6 1.4-5.4 4.7-8.3 7.3-2.9 2.7-5.8 4.8-6.3 4.8-.6 0-1.8 1.3-2.8 2.9-1.9 3.2-10.4 10-19.5 15.9-3.2 2-7.7 5.2-9.9 7-4.3 3.4-23.6 13.1-29.8 15-4.8 1.4-21.7 1.5-29.3.2-10.8-1.9-24.2-8.2-28.9-13.6-4.5-5.1-7.4-9.8-8.8-14-.7-2.2-1.8-4.6-2.5-5.4-.7-.8-1.8-6.7-2.6-13-.7-6.3-1.5-11.7-1.8-12-1.9-1.6-3-5.5-3-10.2 0-2.9-.3-9.8-.8-15.3-1.2-16.6-.1-63 1.6-67.9.4-1.2.9-4.5 1-7.5.2-3 .7-6.5 1.2-7.8.5-1.4 1-6.1 1-10.6.1-7.3-.1-8.2-2.3-9.8-3.7-2.9-8.8-.3-8.8 4.5 0 1.2-.7 3.3-1.4 4.8-.8 1.5-1.7 5.8-2.1 9.5-.3 3.6-.8 7.6-1 8.7-1 3.9-1.5 9.1-2.6 26.1-1.4 22.1-1.3 36.7.5 68.7.5 8.5.4 8.8-1.7 8.8-1.2 0-4.4.7-7.2 1.6-5.4 1.6-12.8 2.6-18.7 2.4-2.1 0-4.6.4-5.6.9s-4.2 1.2-7.1 1.5c-2.9.2-5.8.9-6.4 1.3-.7.5-5 2-9.7 3.3-4.7 1.3-9.7 2.9-11.2 3.7-1.5.7-3.5 1.3-4.5 1.3s-3.1.7-4.7 1.5c-1.5.8-3.5 1.5-4.3 1.5-.9 0-5 1.7-9.2 3.8-4.2 2.2-9 4.2-10.6 4.6-1.6.4-4.2 1.8-5.8 3.2-1.6 1.3-3.4 2.4-4.1 2.4-.6 0-2.1.7-3.1 1.5-1.1.8-3.8 2.9-6 4.6-3.8 2.9-4.3 3.1-10 2.4-3.3-.4-12-.9-19.3-1.1-7.3-.2-13.8-.6-14.4-1-.6-.4-6.2-.6-12.5-.5-6.8.1-12.2-.3-13.5-1-1.1-.6-5-1-8.7-.8-16.7.7-21.8.3-25-2.2-1.7-1.3-3.3-3.5-3.7-4.9-.8-2.9-3.6-7.3-7.4-11.5-1.5-1.7-3.1-4.7-3.4-6.7-.5-2.8-1.5-4.1-4.1-5.7-1.9-1.1-3.5-2.4-3.5-2.9 0-2.6-30.2-15.2-36.4-15.2-1.3 0-3.9-.7-5.8-1.5-5.4-2.2-23.7-5.7-29.8-5.7-3 0-6-.4-6.7-1-1.7-1.4-35.8-2.2-41.2-1-2.7.7-5.3.7-6.8.1-1.7-.6-3.2-.5-5.2.5-2 1.1-5.8 1.4-14.7 1.2-6.5-.2-12.4.1-13.1.6-.6.5-4.6.4-9.7-.2-4.8-.6-9.1-.8-9.7-.5-.5.4-2.6.1-4.7-.6-2-.7-4.1-1.2-4.7-1-.5.1-7.1.5-14.5.7-21.6.7-37.4 4.3-41.2 9.5-1.4 1.9-3.1 2.9-4.8 2.9-2.4 0-13 3.9-21.5 8-4 1.9-8.7 4-17.9 7.9l-4.8 2.1.6-17.3c.6-17.7 1.5-35.1 2-40 .1-1.5.3-4.1.4-5.7.1-1.8.8-3 1.6-3 .7 0 2.5-1 4-2.1 3.2-2.5 2.9-5.4-1-10.6-1.3-1.7-2.4-3.6-2.4-4.2 0-.6-1.3-2.6-3-4.4-1.6-1.9-3-4.2-3-5 0-.9-1-2.8-2.2-4.4-3.4-4.2-4.8-7-7.7-15.3-1.5-4.1-3.4-8.6-4.3-10-.9-1.4-1.9-4.1-2.3-6-.4-1.9-1.3-4.6-2-6-2.2-4.2-7.7-22.2-8.6-28-.4-3-1.3-7.5-1.9-10-.6-2.5-1.6-8.1-2.1-12.5-.6-4.4-1.3-10-1.6-12.5-1.1-9.3-.9-35.5.4-41 .7-3 1.2-7.8 1.3-10.7 0-2.8.4-5.4.9-5.8.5-.3 1.5-3.1 2.1-6.3.7-3.1 2.2-7.5 3.5-9.7 1.2-2.2 2.5-5.2 2.9-6.7.3-1.5 1.2-3.3 1.9-4 .7-.7 3.3-4.2 5.7-7.7 3.5-5.2 5.3-6.8 9.4-8.5 8.3-3.5 20.8-2.2 33.1 3.4 11.4 5.3 31.8 23 43 37.5 3.3 4.3 7.4 9.2 9 10.9 1.7 1.8 4.8 6.7 7 10.9 6.8 13.2 10.4 15.9 15 11.3 2.8-2.8 3.4-7.9 1.1-11.1-.7-1.1-1.7-3.1-2.1-4.5-.4-1.4-1.6-3.6-2.7-5-1-1.4-4.9-6.4-8.6-11.2-3.7-4.8-8.7-11.3-11.2-14.6-2.5-3.2-10.2-10.7-17-16.7-6.9-5.9-13.1-11.4-13.9-12.1-1.1-1-.9-2.1 1.2-6.6 1.3-2.9 2.8-6.4 3.2-7.8.4-1.4 1.6-3.7 2.6-5.2 1.1-1.4 1.9-3.2 1.9-4 .1-.7.9-3.1 2-5.3 1.1-2.2 1.9-4.5 2-5.1 0-.6 1.3-2.8 3-5 1.6-2.1 3-4.4 3-5.1 0-2 8.8-18.9 10.5-20.3.8-.7 1.5-1.8 1.5-2.4 0-1.9 3.7-9.1 5.4-10.6.9-.7 1.6-1.6 1.6-2.1 0-.9 5.2-8.6 8.7-13.1 6-7.4 24.3-26.5 27-28.1 1.8-1 3.3-2.3 3.3-2.8s.8-1.2 1.8-1.6c2-.7 13.1-10 15-12.5.7-1 2.2-1.8 3.3-1.8 1.1 0 3.7-1.8 5.7-4.1s5.4-5 7.4-6 7.2-4.9 11.5-8.5c4.3-3.7 10.1-7.7 12.8-9 2.8-1.2 7.3-4.6 10-7.4 2.8-2.9 6.6-6 8.5-7 4.3-2.2 13.2-8.2 17.2-11.5 1.6-1.4 3.4-2.5 4-2.5.5 0 3.5-1.9 6.6-4.3 3.1-2.4 7.1-4.9 8.9-5.6 1.8-.7 3.8-2 4.5-2.8.6-.8 3.4-2.7 6.1-4.1 2.7-1.5 7.2-3.9 9.9-5.4 2.8-1.5 5.8-3.4 6.7-4.2.9-.8 4.4-2.8 7.7-4.5 3.4-1.7 6.7-3.8 7.4-4.6.7-.8 1.9-1.5 2.8-1.5.8 0 3.6-1.3 6.1-2.9 2.6-1.5 5.8-3.2 7.2-3.6 1.3-.4 7.4-3.1 13.4-6 18.8-9 26.6-12.5 28.5-12.5.9 0 3-.6 4.6-1.4 4.7-2.3 13.4-5.6 13.4-5.1 0 .3 1.8-.4 4-1.5 2.1-1.1 5.1-2 6.5-2 1.4 0 3.8-.6 5.3-1.4 1.5-.7 4.9-1.6 7.5-1.9 2.6-.4 6.9-1.6 9.5-2.7 2.6-1.1 9.3-2.9 15-4 5.7-1.1 12.4-2.6 15-3.4 5.3-1.6 14.9-3.3 23.2-4.2 3-.3 7.5-1 10-1.6 9.9-2.1 25.1-3.9 36.8-4.3 6.8-.2 12.8-.8 13.4-1.2.7-.3 5.1-.8 9.8-.9 4.7-.2 14.6-.8 22-1.4 20.3-1.7 38-1.6 39.1.2 1 1.6 13.9 2.4 13.9.8 0-.7.7-1 1.5-.6 3.3 1.2 4.3-6.4 2-16.4-.3-1.4-.7-6.3-1-11-.2-4.7-.8-10.1-1.3-12-.4-2-.4-5.5.1-8s.8-6.1.8-8.2c-.1-2.4 1.1-6.2 3.9-11.6 2.2-4.4 4-8.4 4-8.9 0-1.6 14.9-16.1 18.3-17.9 4.5-2.3 11.6-3.4 15.5-2.3 9.1 2.6 11 3.5 14.5 6.8 4 3.8 15.7 19.3 15.7 20.8 0 1.2 8 13.6 9.4 14.5 2.1 1.5 4.7.8 7.2-1.9 2.3-2.5 2.5-3.3 1.9-8.8-.3-3.3-1-7.8-1.5-10-1.2-5.2-.5-15.5 1.4-22.7.8-3.1 1.7-6.7 2-8 .4-2.2 2.7-7.7 4.6-10.8.5-.8 2.8-4.9 5.1-9s4.9-8.4 5.9-9.5c1-1.1 2-3.1 2.4-4.5.3-1.4 4.6-7 9.5-12.5 6.5-7.4 10.4-10.8 14.4-12.8 3-1.6 6.3-3.6 7.3-4.5 2.9-2.6 14-6.2 23.1-7.6 4.5-.7 8.4-1.4 8.7-1.7.9-.9 11.1-.7 12.3.3zM302 839.1c1.9.5 5.6.9 8.2.9 2.6 0 5.8.4 7.2 1 1.4.5 5.6 1.2 9.4 1.4 11.5.8 24.1 3.5 29.2 6.1 1.4.7 4.5 2 7 3 2.5.9 5.9 2.3 7.5 3.1 1.7.7 4.3 1.8 5.8 2.4 1.5.5 5.1 2.5 7.8 4.2 3.6 2.4 4.9 3.8 4.5 5.1-.5 2 1.8 8.2 3.3 9.2.6.3 1.3 2.7 1.7 5.3.4 2.6 1.5 6.9 2.5 9.5 2.2 5.7 2.4 8.1.6 9.6-.8.6-2 3-2.7 5.3-.7 2.4-2.3 5.4-3.5 6.8-1.2 1.4-3.1 3.9-4.3 5.6-1.2 1.8-5.6 5.6-9.8 8.5-4.2 3-8.7 6.4-9.9 7.6-1.2 1.3-3 2.3-4 2.3-.9 0-3.4 1.3-5.4 2.8-3.6 2.8-6.9 4.5-14.8 7.7-2.3 1-5 2.6-5.8 3.5-2.3 2.6-28.1 10.1-40.5 11.9-3 .4-6.8 1.3-8.4 2-1.6.6-3.6 1.1-4.5 1-1.6-.3-9.8 1.3-18.1 3.4-2.5.6-5 1-5.5.9-.6-.1-6.1.4-12.2 1.2-6.1.7-12.2 1.2-13.5 1-1.3-.3-9.5-1.1-18.3-1.9-17.4-1.6-21-2.2-39-6.1-11.2-2.5-14.8-3.5-18-4.9-3.7-1.7-14.9-4.5-17.9-4.5-2.7 0-21.7-7.8-28-11.5-2.3-1.4-4.9-2.5-5.7-2.5-.8 0-2.5-1.2-3.8-2.5-1.3-1.4-3.1-2.5-4-2.5-3.4 0-12.1-11.9-14.6-20-.4-1.4-1.4-3.2-2.2-4.1-.8-.9-1.4-2.5-1.4-3.5 0-1.1.1-4.6.1-7.9 0-15.3 5.3-22.3 25.2-33.3 3.1-1.8 6.2-3.2 6.8-3.2.6 0 4.4-1.6 8.4-3.5 4.1-1.9 7.8-3.5 8.4-3.5.5 0 3.9-1.4 7.5-3 3.7-1.7 7.7-3 8.9-3 1.2 0 5.2-1.1 8.8-2.4 3.6-1.3 9.7-2.9 13.5-3.6 3.9-.7 8.7-1.9 10.8-2.8 4.4-1.7 18.4-2.2 26.7-.8 10.4 1.6 61.1-.2 64.8-2.4 2-1.1 25.8-.3 31.2 1.1zM639.8 865c.6 2.2 1.2 5.5 1.2 7.4 0 2.2 1.2 5.2 3.6 8.7 1.9 2.9 4.1 6.7 4.9 8.4 3 6.8 16.3 18 25.1 21 2.7.9 5.6 2.2 6.4 2.9 3.3 2.8 18.5 4.1 38.7 3.4 6.4-.3 7-.1 6.2 1.4-1.3 2.5-1.1 3.2.6 1.8.8-.7 1.5-2 1.5-2.9 0-1.1 2.4-2.5 8-4.5 4.3-1.5 8.9-3.6 10.1-4.7 1.2-1 2.8-1.9 3.5-1.9.7 0 1.4-.4 1.6-.8.2-.4 4.3-2.7 9.1-5s9-4.9 9.4-5.8c.3-.8 1.9-2.2 3.6-3.1 1.7-.8 4.2-2.6 5.6-3.9 6.8-6.2 14.3-12.5 19.3-16.3 5.4-4 5.5-4.1 8.6-2.5 1.7.8 5.4 1.9 8.1 2.3 2.8.4 5.6 1.2 6.3 1.8.7.5 3.6 1.8 6.3 2.8 2.8.9 6.6 2.7 8.5 3.9 6.4 3.9 7.5 4.5 10 5.8 1.4.7 3.9 2.6 5.7 4.3 1.8 1.6 4 3.7 5 4.6 1 .9 2.6 2.9 3.5 4.5 1 1.6 2.2 3.6 2.6 4.4 2.9 4.6 4.2 13.6 4.4 28.4.1 6.4-.1 7-3.1 9.8-3.6 3.3-3.9 5.6-1.2 8.9l1.9 2.4-4.7 1.8c-2.5 1-6.8 2.2-9.6 2.8-2.7.6-7.5 2.1-10.5 3.4-9.7 4-19.5 6.2-36.5 8-7.1.7-14.1 1.6-15.5 1.9-1.4.4-5 .8-8 1.1-3 .3-10.9 1-17.5 1.6-14.5 1.4-50.3 1.7-67.5.6-7.5-.4-17.3-.3-24.5.3-19.4 1.6-29.6 1.7-39.6.4-5.2-.7-13.1-1.5-17.5-1.7-4.5-.3-9.7-1.2-11.5-2-1.9-.8-5.6-1.8-8.4-2.2-2.7-.3-7.4-1.3-10.3-2.1-2.9-.8-6.1-1.3-7-1-1.6.5-11.5-2.4-12.9-3.8-.3-.3-1.8-.6-3.2-.7-1.4 0-4.8-1.3-7.6-2.9-2.7-1.6-7.6-4.3-10.8-6-6.3-3.3-22.4-18.6-25-23.7-2.3-4.4-2.4-14.9-.2-20.8 2.3-6.2 8.1-12.4 14.8-15.9 2.9-1.5 7.7-4.2 10.7-6.1 6.1-3.9 24.4-11.5 27.5-11.5 1.1 0 5.8-1.4 10.5-3.1 4.7-1.7 11.7-3.4 15.5-3.9 3.9-.5 9-1.4 11.5-2 5.3-1.4 21.8-3.7 27.5-3.9 3.8-.1 4.1.1 5.3 3.9zM418 907.7c.6.7 1 1.7 1 2.2 0 .6 1.2 2.5 2.8 4.3 1.5 1.8 3.3 4.3 4 5.6l1.2 2.2-8.5-.2c-8.3-.3-8.5-.2-11.6 2.9l-3.2 3.1 1.3 5.9c1.9 8.8 2.3 12.3 1.4 12.3-.5 0-5.3-.7-10.8-1.4-16.2-2.3-20.1-.7-19.7 8.7.1 2.8.3 5.9.6 6.7.8 2.5-1.8 6.3-4.7 7.1-2 .5-3.4.2-5.1-1.1-1.3-1-4.9-2.2-8.1-2.5-4.7-.6-6.1-.4-7.7 1.1-2.3 2.1-2.5 8-.4 10.8.8 1.1 1.5 3.1 1.5 4.4v2.4l-11.7-.7c-6.6-.4-13.1-1.3-14.7-2.1-4.2-2-8.6-1.7-11.3.8-3 2.8-2.9 4.4.7 11.1 1.8 3.5 2.6 5.8 1.9 6.2-2.3 1.5-20-1.9-23.9-4.6-4.3-2.9-11.2-3.4-17.1-1.3-4.2 1.5-6.2 3.1-10.2 8.1-4.4 5.5-5.2 6.1-6.6 4.9-.9-.7-2.7-1.7-4.1-2.1-1.4-.4-3.5-1.7-4.8-2.8-1.7-1.6-3.3-2-6.3-1.8-4.2.3-15-3.1-18-5.6-.8-.7-2.8-1.3-4.4-1.3-1.6 0-4.3-.5-6.2-1.2-2.9-1.1-3.9-.9-9.2 1.7-4.7 2.2-6.3 2.6-7.4 1.7-.8-.7-1.7-.9-2-.6-1.2 1.3-5.4-.6-6.7-3.1-.7-1.4-2-2.5-2.8-2.5-.9 0-2.3-.7-3.3-1.6-1-.9-3.8-1.9-6.1-2.1-3.6-.4-5.7.2-13.3 3.9-5 2.5-10 5-11.1 5.8-2.5 1.5-5.2.8-6.1-1.7-.4-1-1.3-2.3-2-2.8-.7-.6-2.8-3.2-4.6-6-5.1-7.8-9.9-8.4-17.3-2.1-2.9 2.4-4.4 3.2-5.5 2.5-.8-.5-2.8-.9-4.5-.9-3.8 0-4.9-1.3-5.8-6.3-.9-4.7-4-7.7-8.2-7.7-1.7 0-5-.6-7.2-1.4-2.2-.8-4.9-1.3-5.9-1.1-1 .2-3.7.6-6 .8l-4.2.5.2-7.7c.2-6.9-.1-8-2.3-10.8-2.1-2.7-14.7-10-20.2-11.7-1.5-.5-1.6-.9-.6-3.1.6-1.4 1.4-2.5 1.8-2.5.4 0 1.5-1.6 2.6-3.5 1-1.9 2.6-3.7 3.5-4 .9-.3 2.3-2.4 3.2-4.6 2.1-5.3 4.4-4.9 6.4 1.1.8 2.5 2.1 5.2 2.8 6 .7.8 2.2 3.4 3.4 5.7C79 936 89.3 947 91.2 947c.5 0 2.8 1.6 5.1 3.5 2.2 1.9 4.9 3.5 5.8 3.5 1 0 3.5 1.1 5.5 2.5s4.7 2.5 6 2.5c1.3 0 4.6 1.3 7.2 3 2.7 1.7 6 3 7.4 3 2.3 0 9.9 2.1 14.3 4 1.1.5 3.6 1.1 5.5 1.3 1.9.2 6.7 1.6 10.5 3 3.9 1.4 9.5 3.1 12.5 3.7 15.6 3.2 21.1 4.1 27.7 4.4 3.9.3 8 .9 9.1 1.5 1 .5 6.1 1 11.3 1 5.2-.1 15.2 0 22.4.1 7.1 0 15-.4 17.5-.9 2.5-.6 9-1.7 14.5-2.5 5.5-.9 13.2-2.2 17-3.1 3.9-.8 9.1-1.7 11.7-2 2.6-.3 6.6-1.2 9-2.1 2.4-.8 5.9-1.9 7.8-2.4 10-2.3 15.6-4.3 23.6-8.4 4.9-2.5 9.2-4.6 9.6-4.6.5 0 2.5-1.1 4.6-2.4 2-1.2 4.8-2.7 6.2-3.1 1.4-.4 3.9-1.9 5.6-3.4 1.7-1.4 4.4-3.4 6-4.3 1.6-1 4.9-3.3 7.4-5.3 2.5-1.9 6.2-4.6 8.2-6 4.2-2.8 8.8-7.5 8.8-9 0-.6 1.3-2.3 3-3.8 1.6-1.6 3.5-4.7 4.2-7 .6-2.3 2.2-5.6 3.5-7.3 1.3-1.7 2.3-3.7 2.3-4.5.1-1.2 1.4.1 6 5.8zm87.2 27.4c4.6 9.9 12.7 18.1 26.8 27.2 1.9 1.3 5.8 3.9 8.5 5.8 2.8 1.9 7 4.2 9.5 5.2 5.5 2 24 6.5 29.5 7.1 7.9.9 14.9 2.6 16.5 4.1 1.1 1 3.6 1.4 7.7 1.4 3.4-.1 6.6.2 7.1.5 2 1.2 17.8 3.3 27.2 3.6 7.1.2 30.1-1 34-1.9 5.1-1.1 30.6-.4 34.6.9 2.1.7 5.5.9 8.6.5 4.9-.7 24.5-1.5 44.8-1.8 5.2-.1 10-.5 10.5-.8.9-.6 6.9-1.3 21.5-2.5 3.5-.3 6.9-.9 7.5-1.4.5-.4 5.3-1.1 10.5-1.5 5.2-.4 10.6-1.2 12-1.7 1.4-.5 4.4-1.2 6.8-1.5 2.4-.2 9.3-2.2 15.5-4.2 6.2-2.1 12.9-4.2 15-4.5l3.8-.7-1.5 2.3c-1.4 2.2-1.4 2.7.5 6.3 1.2 2.2 2.8 4.8 3.6 5.7 2.1 2.3 1.3 5.8-1.9 8.1-1.9 1.4-5.7 2.4-12.8 3.2-10.6 1.3-15.2.9-19.1-1.9-2.9-2-5.3-2.1-6.8-.2-1 1.2-2.2 1.2-7.9-.5-7.8-2.2-8.2-2-12.2 6.4-2.4 5-2.7 5.2-7.4 5.9-6.6.9-20.5.3-24.7-1.1-1.9-.6-7-2-11.4-3-4.4-1.1-10.5-3-13.5-4.2-6.2-2.5-11.1-2.9-13.4-1-.9.8-2.1 3.1-2.8 5.2-.9 3-1.6 3.9-3.4 3.9-3.5 0-14.5-3-18.4-5-8.7-4.5-13.2-5.2-17.7-2.9-2.3 1.3-4.3 5.6-4.3 9.5 0 1.3-.6 2.5-1.2 2.6-5.1.6-17 .5-20.3-.2-2.2-.5-5.2-1.1-6.7-1.5-1.5-.3-4.2-1.8-6-3.3-8.9-7.6-22.2-5.2-30.3 5.4-1.5 1.9-3.7 4.1-5 5-2.1 1.4-2.7 1.4-6.3-.5-2.3-1.2-4.6-3.3-5.5-5.3-2.2-4.7-11.1-13.3-17.5-17.1-2.7-1.6-3.8-1.8-5.3-.9-1 .7-3.2.9-4.9.6-2-.5-3.6-.2-4.8.9-2.4 2.1-8.9 4.7-11.9 4.7s-8.3-5.3-8.3-8.4c0-1.4-1.4-3.1-4.2-4.9-4.7-3-5.7-3.1-10.8-1.3-4.7 1.7-9.9-.5-10.2-4.3 0-1.4-.2-3.8-.3-5.3-.3-4-3-7.5-6.8-8.7-2.8-.9-4.4-.8-8.3.5-2.7.9-5.8 2.4-6.9 3.5-1.2 1-3.5 2.2-5.3 2.5-3 .6-3.2.4-3.2-2 0-1.4.9-3.4 2.1-4.4 3.7-3.1 5.5-8.2 4.9-13.9-.7-6.2-3.1-9.9-9.1-13.4-6.2-3.6-6.2-5.8-.2-11.7l4.8-4.7.5 4c.3 2.2 2.2 7.4 4.2 11.6zm380.7-8.9c3.8 4.1 3.8 4.9.1 7.6-4 3-4 6.7 0 11.7 3.3 4.2 7.3 12.3 6.5 13.4-.9 1.5-13.8 6.1-17.1 6.1-1.1 0-2.4.4-2.9.9-.6.5-2.6 1.2-4.5 1.6l-3.5.7 1.9-2.1c1.1-1.1 2.7-2.1 3.6-2.1 2.9 0 5.1-3.6 5.9-9.3.4-3.1 1.2-6.2 1.8-6.9 2-2.4 4.4-12.6 4.5-18.7 0-3.4.2-6.1.4-6.1s1.7 1.5 3.3 3.2zM336 996c0 1.1-.4 2-1 2-.5 0-1-.2-1-.4s-.3-1.1-.6-2c-.4-1.1-.1-1.6 1-1.6.9 0 1.6.8 1.6 2zm-93 136c0 .5-.4 1-1 1-.5 0-1-.5-1-1 0-.6.5-1 1-1 .6 0 1 .4 1 1z"/><path d="M503 464.5c-12.7 1.3-19.4 2.6-24.6 4.5-1.6.7-4.7 1.5-6.9 2-9.4 2-12.9 3.2-18.2 6-3.1 1.7-6.4 3-7.4 3s-3.8.8-6.1 1.9c-9.7 4.3-12 5.1-13.7 5.1-1 0-3.5 1.3-5.6 3-2 1.6-4.6 3.2-5.8 3.6-1.2.4-4 1.9-6.2 3.4s-5.1 3.1-6.5 3.5c-2.6.8-9.6 6.4-18.4 14.5-10.4 9.5-15.6 15.3-24.3 26.9-2.3 3.1-4.7 6.1-5.3 6.8-.5.7-1.4 2.3-1.9 3.5-.5 1.3-1.9 4.6-3 7.5-4.5 11.2-2.7 25.4 4.7 36.4 5.9 8.6 38.2 37.3 43.3 38.4 1.6.4 4.5 1.8 6.6 3.2 2.1 1.4 6 3.2 8.7 4 2.7.8 6.5 2.5 8.5 3.7 4.9 3.1 10.1 5 21.7 8.2 9.1 2.4 11.4 2.6 29.1 2.7 18.6 0 19.3-.1 26-2.8 9.9-4 10.4-4.1 15.3-5.5 2.5-.7 7.3-2.6 10.7-4.2 3.5-1.6 9.1-3.4 12.5-3.9 3.4-.6 6.8-1.4 7.4-2 .6-.5 4.2-2 8-3.3 12.5-4.4 17.4-6.4 20.7-8.5 1.7-1.1 4.6-2.6 6.2-3.3 1.7-.6 8.1-3.8 14.3-7 6.3-3.2 11.8-5.8 12.3-5.8s3.9-2 7.7-4.4c3.8-2.4 7.9-4.7 9.3-5.1 1.3-.4 5.6-3.1 9.4-5.9 3.9-2.8 8.2-5.7 9.5-6.5 5.7-3.1 11.8-8.1 20.9-17.1 10.8-10.6 14.5-15.2 15.5-19.2.3-1.5 1.1-4 1.7-5.5 1.7-4.2 1-10.7-1.7-16.9-1.3-3-2.4-6.3-2.4-7.2 0-1-1-2.9-2.2-4.2-1.3-1.3-4.1-4.9-6.4-8-3.8-5.2-12.8-12.5-19.6-15.9-1.6-.8-2.8-1.8-2.8-2.3 0-.4-.6-.8-1.4-.8-.7 0-2.5-.9-3.9-2s-3.6-2-4.9-2c-1.3 0-3.3-.7-4.4-1.5-1-.8-2.9-1.5-4-1.5-1.2 0-3.3-.9-4.7-2-1.4-1.1-2.9-2-3.4-2s-3.4-1.3-6.4-2.9c-3-1.6-9.7-3.9-14.9-5.1-5.2-1.2-12.4-3-16-4-7.8-2.3-38.6-5.1-53.7-4.9-5.9.1-16.4.7-23.3 1.4zm22 13.2c2.5-.4 7.7-.6 11.5-.2 3.9.3 13.1.8 20.5 1.1 8.3.4 14.3 1 15.5 1.8 1.1.7 4.2 1.6 7 2.1 2.7.4 6.2 1.3 7.7 2.1s4.4 1.4 6.4 1.4c2.2 0 5.5 1 7.9 2.5 2.3 1.3 4.5 2.2 4.8 1.9.3-.4 1.8.2 3.4 1.3 3.7 2.5 8 4.3 10.2 4.3 1 0 2.6.9 3.5 1.9 1 1.1 4.3 2.8 7.4 3.7 6 1.8 16.7 8.4 19 11.6.8 1.1 3 3.6 5 5.7 5.6 5.7 8.2 9.3 8.8 12.1.3 1.4 1 3.5 1.5 4.8 1.4 3.4 1.1 8.2-.5 8.8-.8.3-1.7 1.7-2.1 3.2-.3 1.5-3.1 5.1-6.1 8-3 2.9-5.4 5.7-5.4 6.2s-1.1 1.2-2.5 1.6c-1.4.3-2.5 1-2.5 1.5s-.8 1.3-1.7 1.6c-1 .4-3.1 2.1-4.8 3.8-1.6 1.7-7.7 6.2-13.5 10s-10.9 7.4-11.5 8c-1.2 1.3-7.4 4.5-8.7 4.5-.5 0-2.4 1.1-4.1 2.4-1.8 1.3-5.6 3.4-8.6 4.5-2.9 1.1-7.1 3.2-9.3 4.6-2.1 1.4-5.2 2.8-6.8 3.2-1.7.3-3 .9-3 1.3 0 .5-1.3 1.1-3 1.5-1.6.3-4.1 1.6-5.5 2.7-1.4 1.1-2.9 1.8-3.2 1.4-.3-.3-1.2-.1-1.9.5-2.6 2.1-8.9 4.9-11.2 4.9-1.3 0-4.2 1.1-6.5 2.4-2.3 1.3-6.4 2.6-9.2 3-2.7.3-5.4 1.1-5.9 1.6-.6.6-1.8 1-2.8 1-1.1 0-3.6.9-5.7 2-2.1 1-4.1 1.6-4.5 1.3-.3-.3-1.4.1-2.5 1.1-1 .9-3.6 2-5.7 2.3-2.2.3-5.1 1.4-6.6 2.4-1.4 1.1-3.3 1.9-4.3 1.9-.9 0-2.8.6-4.3 1.3-2.3 1.1-10 2-16.2 1.9-.8 0-6.4-.1-12.5-.2-16.2-.2-30-4.3-49.5-14.6-1.4-.7-4.2-2.1-6.3-3-2.1-.9-4.3-2.4-5-3.4-.6-.9-2.8-2.6-4.8-3.7-9.2-4.9-27.4-22.8-32.5-31.9-4.2-7.6-5.7-17.2-3.1-20.2.8-.9 2.7-4.2 4.3-7.2 3.5-6.6 4.8-8.4 9.5-13 2-1.9 4.3-4.9 5.2-6.5 1.9-3.7 11-13 15.7-16 1.9-1.3 4.6-3.4 5.9-4.9 1.4-1.4 2.9-2.6 3.3-2.6.5 0 2.4-1.1 4.1-2.4 4.2-3.2 17.8-11.1 20.2-11.9 1.1-.3 5.6-2 10-3.7 4.4-1.8 10-4 12.5-5 2.5-.9 5.9-2.2 7.5-2.9 13.6-5.7 27-8.9 40.7-9.7 4.8-.3 10-.9 11.5-1.3s4.2-.5 5.8-.1c1.7.3 5 .2 7.5-.3zM825.6 474.1c-3.3 1.1-6.7 2.5-7.5 3.3-.9.7-2.9 1.6-4.5 2-3.6.9-15.2 12.5-17.2 17.1-2.7 6.6-2.6 12.7.5 19.2 3.1 6.4 7.6 10.5 16.1 14.3 2.5 1.2 5.4 2.6 6.5 3.2 2.9 1.7 16.7 2.2 26.7.9 15-1.8 27.2-9.6 31.8-20.3 3.1-7.3 2.3-13-3-21-2.2-3.3-4-6.6-4-7.3 0-3.9-11.5-10.7-20.8-12.5-8.2-1.5-17.9-1.1-24.6 1.1zM253.7 490.6c-.3.4-2.6 1-5 1.5-2.4.4-8.2 2.6-12.8 4.8-9.5 4.5-14.7 9.6-19.9 19.9-2.4 4.9-3.1 7.4-3.3 13.4-.2 7.2-.1 7.6 3.1 11.4 6.4 7.5 7.4 8.4 9.7 8.4 1.3 0 3.6.4 5 1 3.8 1.5 28.5 1.4 32.1-.1 22.9-9.4 31.3-17.5 31.4-29.8 0-8.1-6.7-18.3-14.4-22.1-2.4-1.1-5.1-3.2-6-4.5-.9-1.3-3.3-2.9-5.3-3.4-4.2-1.2-13.6-1.5-14.6-.5z"/></svg>